<?xml version="1.0" encoding="UTF-8" standalone="no"?>
<!DOCTYPE svg PUBLIC "-//W3C//DTD SVG 1.1//EN" "http://www.w3.org/Graphics/SVG/1.1/DTD/svg11.dtd">
<svg width="100%" height="100%" viewBox="0 0 348 222" version="1.1" xmlns="http://www.w3.org/2000/svg" xmlns:xlink="http://www.w3.org/1999/xlink" xml:space="preserve" xmlns:serif="http://www.serif.com/" style="fill-rule:evenodd;clip-rule:evenodd;stroke-linejoin:round;stroke-miterlimit:1.41421;">
    <g transform="matrix(1,0,0,1,-22.103,-133.483)">
        <g>
            <g transform="matrix(1,0,0,1,-298.488,-58.126)">
                <path d="M509.938,413.398C424.453,413.398 355.154,410.125 355.154,406.087C355.154,402.822 400.466,400.056 463.005,399.117C479.29,405.3 496.959,408.687 515.412,408.687C533.691,408.687 551.192,405.366 567.349,399.295C568.162,399.31 568.968,399.326 569.774,399.342C569.384,402.463 566.721,404.877 563.494,404.877L577.608,404.877C580.719,404.877 583.308,402.626 583.834,399.661C585.697,399.709 587.531,399.758 589.347,399.81C589.478,399.89 589.612,399.969 589.746,400.047C590.98,400.773 592.26,401.427 593.581,402.007C593.823,402.115 594.066,402.219 594.311,402.32C594.564,402.424 594.819,402.526 595.076,402.624C595.454,402.77 595.838,402.911 596.222,403.045C596.521,403.151 596.826,403.254 597.13,403.35C597.6,403.499 598.079,403.649 598.568,403.779C598.568,403.778 598.569,403.777 598.569,403.776C601.677,404.629 604.945,405.087 608.32,405.087C609.091,405.087 609.856,405.063 610.615,405.016C615.694,404.703 620.494,403.357 624.808,401.186C649.611,402.483 664.72,404.202 664.72,406.087C664.72,410.125 595.422,413.398 509.938,413.398Z" style="fill:rgb(207,207,207);fill-rule:nonzero;"/>
            </g>
            <g transform="matrix(1,0,0,1,-298.488,-58.126)">
                <path d="M515.412,408.687C496.959,408.687 479.29,405.3 463.005,399.117C477.809,398.895 493.575,398.775 509.938,398.775C530.223,398.775 549.596,398.96 567.349,399.295C551.192,405.366 533.691,408.687 515.412,408.687Z" style="fill:rgb(187,184,182);fill-rule:nonzero;"/>
            </g>
            <g transform="matrix(1,0,0,1,-298.488,-58.126)">
                <path d="M630.901,276.057C617.92,284.106 604.815,283.767 600.581,283.394L601.554,283.786C604.825,285.065 608.027,286.482 611.17,287.988C624.852,281.956 639.976,284.47 639.976,284.47C628.188,289.988 617.239,289.34 612.67,288.714C614.887,289.803 617.073,290.934 619.231,292.095C619.743,292.369 620.25,292.65 620.757,292.931C633.663,288.951 646.657,292.255 646.657,292.255C635.438,295.944 625.85,294.493 621.973,293.61C622.452,293.883 622.933,294.153 623.408,294.431L623.412,294.409L623.454,294.457C625.561,295.684 627.624,296.958 629.646,298.271C641.645,294.505 653.783,297.592 653.783,297.592C642.691,301.239 633.319,299.457 630.279,298.688C632.029,299.836 633.751,301.01 635.438,302.21C636.327,302.846 637.204,303.491 638.075,304.141C646.902,303.427 654.28,306.783 654.28,306.783C646.462,307.509 640.793,305.508 638.679,304.594C641.723,306.891 644.634,309.284 647.343,311.804C650.141,313.318 655.905,317.092 660.003,324.195C660.003,324.195 650.857,319.735 645.808,311.194C644.047,309.628 642.199,308.105 640.293,306.624C641.368,308.039 644.444,312.803 642.947,319.373C642.947,319.373 638.416,313.324 639.907,306.328C638.276,305.071 636.606,303.841 634.907,302.642C633.874,301.917 632.826,301.203 631.771,300.497C633.175,302.35 637.171,308.555 635.226,317.092C635.226,317.092 629.34,309.241 631.258,300.153C629.088,298.714 626.869,297.319 624.603,295.977C626.661,299.006 630.471,306.218 628.292,315.776C628.292,315.776 621.18,306.289 623.257,295.189C621.775,294.334 620.275,293.5 618.752,292.694C616.966,291.748 615.16,290.825 613.338,289.927C615.439,292.161 622.763,300.956 621.71,314.105C621.71,314.105 611.86,303.218 612.765,289.645C608.992,287.802 605.137,286.082 601.185,284.563L600.918,284.456C603.919,287.228 612.27,296.125 613.224,310.087C613.224,310.087 601.215,299.035 599.896,284.051L598.922,283.664C598.544,283.517 598.17,283.358 597.788,283.221L596.636,282.822L592.026,281.229C590.5,280.664 588.927,280.252 587.372,279.783L582.697,278.407L582.897,277.457L587.619,278.876C589.189,279.359 590.778,279.785 592.318,280.364L596.968,282.002L598.13,282.412C598.516,282.553 598.892,282.715 599.273,282.866L599.576,282.988C613.629,274.548 630.901,276.057 630.901,276.057Z" style="fill:rgb(10,140,100);fill-rule:nonzero;"/>
            </g>
            <g transform="matrix(1,0,0,1,-298.488,-58.126)">
                <path d="M620.439,257.08C620.899,257.288 633.985,259.727 636.636,254.787L627.895,254.071C627.895,254.071 638.141,254.043 639.7,251.238C641.258,248.433 646.199,238.967 646.199,238.967C646.199,238.967 638.043,240.287 637.039,240.005C637.039,240.005 644.174,238.58 645.927,233.1C647.68,227.619 646.49,219.86 646.49,219.86L640.754,223.136C640.754,223.136 645.066,219.804 644.031,216.733C642.996,213.663 638.129,201.484 638.668,200.102C639.207,198.72 630.699,202.699 628.222,205.949C625.744,209.199 629.482,213.804 629.482,213.804C629.482,213.804 624.313,210.759 623.045,209.191C621.776,207.624 617.156,215.506 616.875,215.926C616.594,216.347 619.013,226.836 620.091,227.935C621.17,229.034 614.108,223.549 613.732,221.803C613.354,220.058 609.866,228.46 610.905,231.913C611.944,235.366 615.649,241.769 615.649,241.769C615.649,241.769 610.806,240.28 609.558,237.727C608.311,235.173 605.564,250.344 620.439,257.08Z" style="fill:rgb(10,140,100);fill-rule:nonzero;"/>
            </g>
            <g transform="matrix(1,0,0,1,-298.488,-58.126)">
                <path d="M621.352,257.36C620.727,257.253 620.329,257.162 620.255,257.129C606.516,250.907 607.81,237.488 609.071,237.488C609.086,237.488 609.1,237.49 609.115,237.494C607.919,238.422 607.208,251.088 620.439,257.08C620.504,257.11 620.821,257.184 621.325,257.275C621.334,257.304 621.343,257.332 621.352,257.36ZM615.649,241.769C615.649,241.769 615.555,241.74 615.389,241.683C614.852,240.745 611.672,235.119 610.722,231.962C609.779,228.827 612.565,221.616 613.37,221.616C613.385,221.616 613.4,221.618 613.414,221.624C612.471,222.301 610.011,228.94 610.905,231.913C611.944,235.366 615.649,241.769 615.649,241.769ZM620.195,228.08C620.161,228.08 620.009,227.982 619.773,227.81C618.641,226.069 616.421,216.378 616.691,215.975C616.942,215.6 620.634,209.308 622.335,209.043C620.566,209.687 617.117,215.565 616.875,215.926C616.594,216.347 619.013,226.836 620.091,227.935C620.188,228.034 620.219,228.08 620.195,228.08ZM629.482,213.804C629.482,213.804 629.333,213.717 629.08,213.564C628.319,212.506 625.931,208.761 628.038,205.997C629.973,203.459 635.587,200.476 637.695,199.951C635.46,200.593 630.103,203.481 628.222,205.949C625.744,209.199 629.482,213.804 629.482,213.804Z" style="fill:rgb(43,166,162);fill-rule:nonzero;"/>
            </g>
            <g transform="matrix(1,0,0,1,-298.488,-58.126)">
                <path d="M621.325,257.275C620.821,257.184 620.504,257.11 620.439,257.08C607.208,251.088 607.919,238.422 609.115,237.494C609.204,237.517 609.292,237.608 609.374,237.775C610.621,240.329 615.466,241.817 615.466,241.817C615.466,241.817 615.439,241.771 615.389,241.683C615.555,241.74 615.649,241.769 615.649,241.769C615.649,241.769 611.944,235.366 610.905,231.913C610.011,228.94 612.471,222.301 613.414,221.624C613.474,221.647 613.52,221.72 613.548,221.851C613.891,223.44 619.772,228.128 620.012,228.128C620.035,228.128 620.004,228.083 619.907,227.984C619.864,227.94 619.819,227.882 619.773,227.81C620.009,227.982 620.161,228.08 620.195,228.08C620.219,228.08 620.188,228.034 620.091,227.935C619.013,226.836 616.594,216.347 616.875,215.926C617.117,215.565 620.566,209.687 622.335,209.043C622.371,209.037 622.407,209.034 622.442,209.034C622.605,209.034 622.747,209.099 622.861,209.24C624.13,210.808 629.298,213.853 629.298,213.853C629.298,213.853 629.214,213.75 629.08,213.564C629.333,213.717 629.482,213.804 629.482,213.804C629.482,213.804 625.744,209.199 628.222,205.949C630.103,203.481 635.46,200.593 637.695,199.951C637.907,199.898 638.084,199.87 638.218,199.87C638.237,199.87 638.255,199.871 638.271,199.872L638.484,200.15C638.484,200.15 615.808,239.805 621.325,257.275Z" style="fill:rgb(11,125,89);fill-rule:nonzero;"/>
            </g>
            <g transform="matrix(1,0,0,1,-298.488,-58.126)">
                <path d="M621.006,257.166L621.058,257.16L621.161,256.961C620.046,252.097 620.4,245.87 622.214,238.456L622.247,238.316L622.371,238.28C623.049,238.081 623.742,237.881 624.446,237.678C627.896,236.683 631.454,235.656 634.631,234.353L634.721,234.145L634.601,234.04L634.539,234.049C631.372,235.349 627.818,236.374 624.382,237.365C623.811,237.53 623.249,237.692 622.694,237.854L622.337,237.959L622.439,237.558C623.715,232.596 625.626,227.107 628.121,221.244L628.157,221.158L628.234,221.122C629.737,220.397 631.519,219.643 633.405,218.843C634.177,218.516 634.961,218.183 635.741,217.847L635.822,217.762L635.827,217.638L635.708,217.536L635.644,217.545C634.865,217.881 634.082,218.214 633.311,218.541C631.785,219.188 630.208,219.856 628.859,220.48L628.345,220.719L628.59,220.155C633.454,208.955 638.732,200.278 638.785,200.191L638.81,200.07L638.75,199.967L638.686,199.941L638.551,200.013C638.495,200.104 632.906,209.27 627.96,220.821C627.422,222.076 626.89,223.369 626.376,224.665L626.171,225.183L625.981,224.667C625.046,222.106 622.549,215.737 622.301,215.152L622.188,215.063L622.109,215.081L622.036,215.174L622.041,215.297C622.445,216.249 625.529,224.174 625.974,225.523L626.004,225.614L625.969,225.705C624.059,230.64 622.607,235.256 621.654,239.424L621.552,239.87L621.285,239.533C618.491,236.015 616.419,232.08 614.761,228.696L614.65,228.616L614.565,228.637L614.509,228.858C616.249,232.408 618.423,236.521 621.349,240.113L621.457,240.206L621.443,240.369C620.038,246.925 619.85,252.538 620.884,257.05L621.006,257.166Z" style="fill:rgb(13,97,67);fill-rule:nonzero;"/>
            </g>
            <g transform="matrix(1,0,0,1,-298.488,-58.126)">
                <path d="M613.386,259.932C614.092,256.248 614.456,252.447 615.941,249.003C617.427,245.56 620.344,242.435 624.065,241.97C627.786,241.505 631.884,244.759 631.265,248.458C631.015,249.951 630.22,251.822 631.436,252.725C632.583,253.576 634.176,252.398 634.853,251.139C635.957,249.079 636.186,246.684 636.593,244.383C637.001,242.082 637.688,239.678 639.423,238.113C641.158,236.548 644.229,236.279 645.669,238.12C646.207,238.807 646.476,239.71 647.155,240.257C648.297,241.177 650.07,240.639 651.124,239.619C652.178,238.6 652.789,237.212 653.704,236.066C656.921,232.038 664.101,232.306 667.009,236.563C669.916,240.821 667.554,247.606 662.631,249.137C661.104,249.612 659.437,249.647 658.01,250.367C656.583,251.087 655.489,252.919 656.326,254.28C657.176,255.66 659.204,255.522 660.649,256.253C663.053,257.466 663.314,261.102 661.706,263.261C660.099,265.42 657.298,266.331 654.625,266.653C651.952,266.976 649.215,266.838 646.601,267.481C645.685,267.707 644.646,268.192 644.507,269.126C644.285,270.621 646.322,271.191 647.693,271.827C650.974,273.347 651.651,278.11 649.787,281.208C647.923,284.305 644.349,285.955 640.838,286.817C635.173,288.209 629.299,287.994 623.524,287.658C617.931,287.332 612.021,287.91 606.509,287.351C598.755,286.563 605.558,280.142 607.559,276.386C610.304,271.231 612.287,265.668 613.386,259.932Z" style="fill:rgb(41,185,145);fill-rule:nonzero;"/>
            </g>
            <g transform="matrix(1,0,0,1,-298.488,-58.126)">
                <path d="M639.751,274.996C639.987,274.961 639.896,274.602 639.662,274.636C627.902,276.342 616.539,279.498 605.789,284.528C616.512,277.174 626.819,269.217 636.648,260.703L636.672,260.701C641.281,259.521 645.997,258.844 650.753,258.684C650.99,258.675 650.998,258.304 650.76,258.313C646.205,258.466 641.685,259.089 637.26,260.172C639.393,258.315 641.505,256.438 643.592,254.527C647.455,250.993 651.236,247.369 654.937,243.664C655.104,243.495 654.845,243.23 654.676,243.399C650.812,247.27 646.854,251.047 642.811,254.729C643.413,252.069 644.016,249.41 644.618,246.75C644.671,246.518 644.314,246.416 644.262,246.649C643.623,249.466 642.985,252.283 642.348,255.101L642.343,255.157C635.182,261.658 627.746,267.857 620.063,273.733C622.744,267.093 624.792,260.214 626.175,253.187C626.221,252.953 625.864,252.852 625.817,253.086C624.398,260.304 622.278,267.364 619.489,274.17C617.18,275.929 614.851,277.661 612.497,279.361C608.295,282.396 604.022,285.334 599.688,288.178C599.49,288.308 599.67,288.632 599.87,288.501C601.219,287.615 602.56,286.718 603.896,285.813L604,285.797C615.301,280.226 627.303,276.802 639.751,274.996Z" style="fill:rgb(13,97,67);fill-rule:nonzero;"/>
            </g>
            <g transform="matrix(1,0,0,1,-298.488,-58.126)">
                <path d="M359.902,309.541C372.572,315.562 384.498,313.911 388.324,313.139L387.477,313.597C384.622,315.099 381.845,316.719 379.13,318.415C366.026,314.308 352.479,318.146 352.479,318.146C363.802,321.979 373.729,320.269 377.835,319.229C375.923,320.45 374.043,321.706 372.192,322.986C371.752,323.289 371.319,323.598 370.885,323.905C358.699,321.592 347.176,325.936 347.176,325.936C357.793,328.156 366.396,325.852 369.845,324.65C369.435,324.947 369.024,325.243 368.619,325.545L368.612,325.525L368.579,325.573C366.782,326.908 365.029,328.282 363.318,329.687C351.982,327.477 341.218,331.534 341.218,331.534C351.714,333.73 360.086,331.146 362.782,330.133C361.303,331.359 359.851,332.606 358.434,333.874C357.687,334.546 356.953,335.225 356.225,335.906C348.095,336.156 341.704,339.975 341.704,339.975C348.914,339.837 353.884,337.432 355.72,336.381C353.177,338.789 350.764,341.271 348.549,343.847C346.15,345.516 341.275,349.549 338.261,356.451C338.261,356.451 346.152,351.445 349.888,343.134C351.334,341.524 352.866,339.946 354.455,338.399C353.618,339.801 351.296,344.463 353.334,350.307C353.334,350.307 356.852,344.323 354.776,338.091C356.136,336.776 357.534,335.482 358.963,334.214C359.832,333.447 360.715,332.689 361.606,331.937C360.514,333.771 357.5,339.842 360.149,347.435C360.149,347.435 364.718,339.669 362.039,331.57C363.873,330.035 365.755,328.535 367.687,327.078C366.117,330.054 363.377,337.024 366.343,345.525C366.343,345.525 371.865,336.14 368.834,326.222C370.099,325.29 371.383,324.375 372.691,323.484C374.224,322.438 375.778,321.411 377.35,320.405C375.659,322.659 369.875,331.435 372.179,343.328C372.179,343.328 380.056,332.385 377.844,320.089C381.099,318.021 384.441,316.058 387.894,314.267L388.126,314.144C385.67,316.979 378.957,325.953 379.514,338.794C379.514,338.794 389.345,327.479 389.018,313.668L389.867,313.216C390.197,313.043 390.521,312.86 390.856,312.695L391.868,312.214L395.911,310.288C397.246,309.617 398.641,309.081 400.012,308.493L404.138,306.761L403.858,305.913L399.693,307.69C398.31,308.292 396.903,308.844 395.557,309.529L391.48,311.5L390.462,311.992C390.124,312.16 389.797,312.347 389.465,312.523L389.201,312.666C375.512,306.398 359.902,309.541 359.902,309.541Z" style="fill:rgb(13,97,67);fill-rule:nonzero;"/>
            </g>
            <g transform="matrix(1,0,0,1,-298.488,-58.126)">
                <path d="M372.607,249.845C368.47,263.867 372.107,275.876 373.525,279.689L372.916,278.891C370.905,276.196 368.786,273.601 366.599,271.082C368.697,256.925 362.542,243.602 362.542,243.602C360.438,255.881 363.812,265.822 365.549,269.881C363.982,268.111 362.383,266.381 360.764,264.683C360.381,264.279 359.994,263.884 359.607,263.486C360.006,250.565 353.662,239.41 353.662,239.41C353.101,250.701 356.873,259.182 358.67,262.537C358.298,262.163 357.926,261.789 357.55,261.421L357.568,261.41L357.514,261.384C355.847,259.751 354.148,258.171 352.424,256.637C352.856,244.608 346.929,234.187 346.929,234.187C346.375,245.349 350.397,253.547 351.877,256.158C350.374,254.834 348.854,253.543 347.319,252.289C346.506,251.63 345.688,250.984 344.868,250.346C343.289,242.018 338.319,236.059 338.319,236.059C339.632,243.459 342.916,248.184 344.297,249.903C341.404,247.677 338.457,245.597 335.445,243.735C333.337,241.537 328.392,237.174 320.797,235.193C320.797,235.193 327.233,242.503 336.397,244.997C338.29,246.225 340.163,247.544 342.014,248.929C340.435,248.295 335.258,246.664 329.574,249.712C329.574,249.712 336.306,252.359 342.384,249.209C343.958,250.396 345.517,251.625 347.055,252.89C347.986,253.659 348.91,254.445 349.829,255.24C347.763,254.414 341.023,252.299 333.638,256.261C333.638,256.261 342.376,259.701 350.277,255.627C352.155,257.266 354.006,258.958 355.82,260.71C352.501,259.578 344.88,257.891 336.61,262.326C336.61,262.326 347.17,266.484 356.888,261.753C358.053,262.902 359.203,264.076 360.333,265.277C361.659,266.686 362.969,268.118 364.26,269.572C361.665,268.199 351.691,263.671 339.821,267.977C339.821,267.977 352.368,274.307 364.666,270.029C367.324,273.044 369.889,276.166 372.293,279.429L372.459,279.648C369.14,277.581 358.811,272.13 345.682,274.79C345.682,274.79 358.928,283.071 373.093,280.488L373.696,281.289C373.928,281.602 374.169,281.905 374.393,282.224L375.053,283.186L377.693,287.036C378.601,288.301 379.38,289.648 380.207,290.966L382.662,294.932L383.489,294.506L380.982,290.507C380.138,289.18 379.342,287.822 378.416,286.548L375.726,282.672L375.053,281.702C374.825,281.383 374.58,281.076 374.344,280.763L374.154,280.515C378.38,265.403 372.607,249.845 372.607,249.845Z" style="fill:rgb(10,140,100);fill-rule:nonzero;"/>
            </g>
            <g transform="matrix(1,0,0,1,-298.488,-58.126)">
                <path d="M367.654,318.085C363.759,318.985 359.897,320.269 355.9,320.308C351.903,320.345 347.598,318.85 345.54,315.423C343.482,311.996 344.887,306.599 348.759,305.607C350.322,305.207 352.489,305.175 352.844,303.601C353.179,302.114 351.343,301.069 349.824,300.954C347.34,300.766 344.907,301.576 342.488,302.171C340.069,302.767 337.43,303.134 335.156,302.117C332.882,301.101 331.296,298.223 332.469,296.025C332.907,295.205 333.671,294.554 333.911,293.655C334.315,292.146 333.025,290.649 331.577,290.061C330.129,289.475 328.513,289.478 327.001,289.08C321.687,287.682 318.852,280.568 321.747,275.897C324.643,271.225 332.275,270.602 335.892,274.74C337.013,276.023 337.767,277.634 339.083,278.714C340.401,279.795 342.659,280.07 343.624,278.667C344.602,277.244 343.593,275.327 343.681,273.602C343.828,270.736 347.259,268.913 350.057,269.549C352.855,270.186 354.952,272.523 356.418,274.989C357.885,277.455 358.932,280.183 360.686,282.453C361.301,283.249 362.223,284.052 363.192,283.784C364.746,283.355 364.423,281.125 364.451,279.514C364.517,275.66 368.868,272.945 372.691,273.427C376.515,273.907 379.664,276.68 382.02,279.729C385.819,284.651 388.144,290.47 390.307,296.243C392.402,301.836 395.515,307.348 397.347,312.962C399.923,320.858 390.729,316.998 386.206,316.668C379.997,316.215 373.72,316.682 367.654,318.085Z" style="fill:rgb(41,185,145);fill-rule:nonzero;"/>
            </g>
            <g transform="matrix(1,0,0,1,-298.488,-58.126)">
                <path d="M370.965,285.889C370.83,285.673 370.519,285.917 370.653,286.13C377.389,296.856 385.366,306.572 394.906,314.881C383.112,307.601 370.91,300.985 358.373,295.077L358.359,295.057C355.221,291.072 352.527,286.768 350.319,282.201C350.208,281.973 349.844,282.125 349.955,282.354C352.07,286.727 354.626,290.864 357.59,294.711C354.861,293.433 352.118,292.184 349.358,290.974C344.246,288.731 339.083,286.609 333.875,284.602C333.638,284.511 333.492,284.878 333.73,284.97C339.17,287.066 344.558,289.296 349.892,291.647C347.039,292.207 344.187,292.768 341.333,293.328C341.084,293.377 341.139,293.768 341.389,293.719C344.411,293.126 347.432,292.532 350.454,291.939L350.51,291.919C359.937,296.096 369.185,300.669 378.228,305.623C370.598,305.874 363.009,306.846 355.563,308.529C355.316,308.585 355.371,308.977 355.619,308.92C363.266,307.191 371.063,306.211 378.899,305.994C381.61,307.486 384.305,309.01 386.977,310.57C391.747,313.357 396.453,316.255 401.095,319.252C401.307,319.39 401.546,319.074 401.332,318.937C399.887,318.003 398.433,317.084 396.976,316.171L396.915,316.077C386.61,307.465 378.096,297.243 370.965,285.889Z" style="fill:rgb(42,151,198);fill-rule:nonzero;"/>
            </g>
            <g transform="matrix(1,0,0,1,-298.488,-58.126)">
                <path d="M393.463,297.049C394.002,297.008 407.532,292.571 407.482,286.576L398.912,290.395C398.912,290.395 408.512,285.105 408.532,281.672C408.553,278.239 408.325,266.819 408.325,266.819C408.325,266.819 401.352,272.249 400.265,272.499C400.265,272.499 406.227,267.497 405.056,261.455C403.884,255.412 398.781,248.744 398.781,248.744L395.083,254.764C395.083,254.764 397.417,249.423 394.868,247.074C392.319,244.724 381.496,235.798 381.291,234.225C381.087,232.651 375.149,240.756 374.495,245.078C373.84,249.4 379.712,251.801 379.712,251.801C379.712,251.801 373.299,251.599 371.304,250.78C369.308,249.961 369.023,259.729 368.975,260.27C368.927,260.809 376.586,269.406 378.163,269.883C379.739,270.36 370.296,268.842 369.045,267.397C367.795,265.953 368.838,275.629 371.587,278.335C374.336,281.04 381.103,285.145 381.103,285.145C381.103,285.145 375.792,286.236 373.311,284.481C372.054,283.593 372.771,287.164 376.046,290.736C379.239,294.219 384.864,297.702 393.463,297.049Z" style="fill:rgb(10,140,100);fill-rule:nonzero;"/>
            </g>
            <g transform="matrix(1,0,0,1,-298.488,-58.126)">
                <path d="M391.252,297.268C391.067,297.268 390.882,297.266 390.7,297.262C390.68,297.214 390.661,297.166 390.642,297.117C390.892,297.125 391.145,297.128 391.4,297.128C392.068,297.128 392.755,297.103 393.463,297.049C393.539,297.043 393.874,296.95 394.394,296.776C394.418,296.799 394.44,296.821 394.464,296.843C393.822,297.062 393.401,297.182 393.315,297.188C392.608,297.242 391.92,297.268 391.252,297.268ZM369.197,273.815C368.351,270.738 368.134,267.464 368.655,267.392C368.334,268.061 368.599,271.001 369.367,273.758C369.31,273.777 369.253,273.796 369.197,273.815ZM378.267,269.972C378.18,269.972 378.019,269.957 377.8,269.929C377.334,269.679 376.579,269.037 375.699,268.198C375.699,268.104 375.698,268.008 375.697,267.914C376.795,268.973 377.72,269.749 378.163,269.883C378.365,269.944 378.386,269.972 378.267,269.972ZM370.692,262.865C369.584,261.576 368.813,260.58 368.828,260.408C368.871,259.929 369.102,252.127 370.561,251.005C369.233,252.518 369.017,259.805 368.975,260.27C368.96,260.434 369.665,261.35 370.695,262.557C370.694,262.66 370.693,262.762 370.692,262.865Z" style="fill:rgb(79,173,162);fill-rule:nonzero;"/>
            </g>
            <g transform="matrix(1,0,0,1,-298.488,-58.126)">
                <path d="M375.699,268.198C374.113,266.685 372.122,264.53 370.692,262.865C370.693,262.762 370.694,262.66 370.695,262.557C372.09,264.191 374.081,266.358 375.697,267.914C375.698,268.008 375.699,268.104 375.699,268.198Z" style="fill:rgb(11,125,89);fill-rule:nonzero;"/>
            </g>
            <g transform="matrix(1,0,0,1,-298.488,-58.126)">
                <path d="M379.712,251.801C379.712,251.801 379.528,251.795 379.213,251.781C377.956,251.18 373.79,248.894 374.347,245.218C374.858,241.844 378.586,236.169 380.296,234.588C378.528,236.343 374.991,241.799 374.495,245.078C373.84,249.4 379.712,251.801 379.712,251.801Z" style="fill:rgb(79,173,162);fill-rule:nonzero;"/>
            </g>
            <g transform="matrix(1,0,0,1,-298.488,-58.126)">
                <path d="M390.7,297.262C383.56,297.109 378.756,293.992 375.899,290.876C373.048,287.767 372.135,284.658 372.776,284.491C372.489,285.152 373.486,287.944 376.046,290.736C378.876,293.822 383.616,296.909 390.642,297.117C390.661,297.166 390.68,297.214 390.7,297.262ZM380.814,285.198C379.828,284.593 373.954,280.949 371.44,278.475C370.472,277.522 369.716,275.706 369.197,273.815C369.253,273.796 369.31,273.777 369.367,273.758C369.885,275.619 370.634,277.396 371.587,278.335C374.336,281.04 381.103,285.145 381.103,285.145C381.103,285.145 380.999,285.166 380.814,285.198Z" style="fill:rgb(18,153,114);fill-rule:nonzero;"/>
            </g>
            <g transform="matrix(1,0,0,1,-298.488,-58.126)">
                <path d="M391.4,297.128C391.145,297.128 390.892,297.125 390.642,297.117C383.616,296.909 378.876,293.822 376.046,290.736C373.486,287.944 372.489,285.152 372.776,284.491C372.794,284.486 372.813,284.483 372.833,284.483C372.921,284.483 373.031,284.528 373.164,284.621C374.269,285.403 375.937,285.62 377.446,285.62C379.323,285.62 380.955,285.284 380.955,285.284C380.955,285.284 380.906,285.254 380.814,285.198C380.999,285.166 381.103,285.145 381.103,285.145C381.103,285.145 374.336,281.04 371.587,278.335C370.634,277.396 369.885,275.619 369.367,273.758C368.599,271.001 368.334,268.061 368.655,267.392C368.66,267.391 368.666,267.391 368.672,267.391C368.737,267.391 368.812,267.438 368.898,267.537C369.988,268.797 377.31,270.113 378.12,270.113C378.239,270.113 378.217,270.084 378.016,270.023C377.953,270.005 377.881,269.973 377.8,269.929C378.019,269.957 378.18,269.972 378.267,269.972C378.386,269.972 378.365,269.944 378.163,269.883C377.72,269.749 376.795,268.973 375.697,267.914C374.081,266.358 372.09,264.191 370.695,262.557C369.665,261.35 368.96,260.434 368.975,260.27C369.017,259.805 369.233,252.518 370.561,251.005C370.675,250.918 370.795,250.871 370.924,250.871C370.999,250.871 371.076,250.887 371.156,250.92C373.152,251.738 379.564,251.94 379.564,251.94C379.564,251.94 379.433,251.887 379.213,251.781C379.528,251.795 379.712,251.801 379.712,251.801C379.712,251.801 373.84,249.4 374.495,245.078C374.991,241.799 378.528,236.343 380.296,234.588C380.494,234.404 380.665,234.276 380.801,234.213L381.145,234.365C381.145,234.365 380.243,283.22 394.394,296.776C393.874,296.95 393.539,297.043 393.463,297.049C392.755,297.103 392.068,297.128 391.4,297.128Z" style="fill:rgb(11,125,89);fill-rule:nonzero;"/>
            </g>
            <g transform="matrix(1,0,0,1,-298.488,-58.126)">
                <path d="M394.039,296.838L394.085,296.806L394.079,296.566C390.533,292.575 387.667,286.552 385.559,278.663L385.52,278.516L385.616,278.418C386.15,277.883 386.697,277.339 387.254,276.787C389.979,274.081 392.79,271.289 395.101,268.434L395.078,268.193L394.911,268.155L394.859,268.195C392.555,271.043 389.748,273.831 387.032,276.526C386.582,276.974 386.139,277.415 385.701,277.852L385.42,278.134L385.31,277.705C383.957,272.394 382.93,266.262 382.258,259.479L382.248,259.382L382.302,259.307C383.34,257.856 384.623,256.231 385.982,254.512C386.538,253.809 387.104,253.094 387.662,252.377L387.694,252.256L387.636,252.138L387.472,252.103L387.416,252.145C386.858,252.86 386.294,253.574 385.738,254.277C384.64,255.668 383.503,257.106 382.559,258.384L382.198,258.873L382.139,258.218C380.948,245.209 381.441,234.357 381.447,234.249L381.407,234.123L381.3,234.057L381.225,234.065L381.136,234.202C381.13,234.315 380.596,245.787 381.89,259.166C382.03,260.619 382.194,262.106 382.379,263.586L382.452,264.178L382.011,263.791C379.816,261.869 374.201,257.176 373.667,256.754L373.516,256.729L373.452,256.785L373.431,256.912L373.499,257.024C374.367,257.71 381.332,263.56 382.442,264.598L382.517,264.667L382.531,264.771C383.274,270.383 384.284,275.459 385.531,279.859L385.665,280.33L385.241,280.151C380.813,278.285 376.847,275.658 373.552,273.335L373.408,273.317L373.338,273.381L373.399,273.617C376.855,276.054 381.008,278.796 385.599,280.662L385.748,280.694L385.819,280.854C387.869,287.728 390.576,293.09 393.864,296.791L394.039,296.838Z" style="fill:rgb(13,97,67);fill-rule:nonzero;"/>
            </g>
            <g transform="matrix(1,0,0,1,-298.488,-58.126)">
                <path d="M568.896,345.445L551.665,352.909L534.433,345.445L517.201,352.909L499.969,345.445L482.736,352.909L460.732,343.379L460.732,243.358L482.736,252.889L499.969,245.425L517.201,252.889L534.433,245.425L551.665,252.889L568.896,245.425L586.129,252.889L608.133,243.358L608.133,343.379L586.129,352.909L568.896,345.445Z" style="fill:white;fill-rule:nonzero;"/>
            </g>
            <g transform="matrix(1,0,0,1,-298.488,-58.126)">
                <path d="M499.969,250.457L482.736,257.921L482.736,347.877L499.969,340.414L499.969,250.457Z" style="fill:rgb(28,167,214);fill-rule:nonzero;"/>
            </g>
            <g transform="matrix(1,0,0,1,-298.488,-58.126)">
                <path d="M465.505,250.456L465.505,340.414L482.736,347.877L482.736,257.921L465.505,250.456Z" style="fill:rgb(153,218,239);fill-rule:nonzero;"/>
            </g>
            <g transform="matrix(1,0,0,1,-298.488,-58.126)">
                <path d="M534.433,250.457L517.201,257.921L517.201,347.877L534.433,340.414L534.433,250.457Z" style="fill:rgb(28,167,214);fill-rule:nonzero;"/>
            </g>
            <g transform="matrix(1,0,0,1,-298.488,-58.126)">
                <path d="M499.969,250.457L499.969,340.414L517.201,347.877L517.201,257.921L499.969,250.457Z" style="fill:rgb(153,218,239);fill-rule:nonzero;"/>
            </g>
            <g transform="matrix(1,0,0,1,-298.488,-58.126)">
                <path d="M568.896,250.457L551.665,257.921L551.665,347.877L568.896,340.414L568.896,250.457Z" style="fill:rgb(28,167,214);fill-rule:nonzero;"/>
            </g>
            <g transform="matrix(1,0,0,1,-298.488,-58.126)">
                <path d="M534.433,250.457L534.433,340.414L551.665,347.877L551.665,257.921L534.433,250.457Z" style="fill:rgb(153,218,239);fill-rule:nonzero;"/>
            </g>
            <g transform="matrix(1,0,0,1,-298.488,-58.126)">
                <path d="M603.36,250.457L586.129,257.921L586.129,347.877L603.36,340.414L603.36,250.457Z" style="fill:rgb(28,167,214);fill-rule:nonzero;"/>
            </g>
            <g transform="matrix(1,0,0,1,-298.488,-58.126)">
                <path d="M568.896,250.457L568.896,340.414L586.129,347.877L586.129,257.921L568.896,250.457Z" style="fill:rgb(153,218,239);fill-rule:nonzero;"/>
            </g>
            <g transform="matrix(1,0,0,1,-298.488,-58.126)">
                <path d="M544.23,258.5L540.687,254.905C540.395,254.61 540.358,254.147 540.6,253.81L540.972,253.289L534.433,250.457L523.469,255.206L522.404,263.612C522.386,263.763 522.406,263.915 522.466,264.054L524.01,267.682L525.043,270.11L525.178,270.329L528.05,273.714C528.449,274.185 529.202,274.089 529.47,273.532L532.325,267.601C532.396,267.454 532.508,267.33 532.647,267.244L534.096,266.353L537.816,264.063L539.481,263.039L539.523,263.012L544.112,259.8C544.545,259.496 544.602,258.878 544.23,258.5Z" style="fill:rgb(41,185,145);fill-rule:nonzero;"/>
            </g>
            <g transform="matrix(1,0,0,1,-298.488,-58.126)">
                <path d="M521.635,322.54C516.138,322.255 521.919,316.26 515.995,316.902C510.072,317.544 508.859,313.262 505.291,312.691C501.824,312.137 499.24,314.271 499.096,314.393C498.363,314.057 496.59,313.251 492.658,311.477C483.167,307.195 484.166,298.988 483.848,298.838C483.53,298.686 486.449,298.774 489.447,298.774C492.444,298.774 494.728,302.2 497.369,302.628C500.01,303.057 497.797,301.344 497.654,295.063C497.512,288.782 510.358,285.071 507.503,280.718C504.648,276.364 513.284,276.15 516.138,274.795C518.994,273.438 512.499,265.73 505.862,267.586C499.225,269.442 502.079,263.305 498.653,260.807C495.228,258.309 495.514,270.727 495.514,270.727C495.514,270.727 486.235,267.943 486.378,263.661C486.454,261.386 489.635,257.133 492.599,253.648L482.736,257.921L465.505,250.456L465.505,293.914C467.331,298.582 468.165,302.663 470.107,304.556C472.89,307.268 474.537,300.809 474.537,300.809C474.537,300.809 476.102,309.266 480.455,311.835C484.809,314.404 496.37,318.115 496.37,318.115C496.37,318.115 492.873,320.97 492.802,322.184C492.73,323.397 495.228,327.179 496.727,330.891C498.226,334.602 501.794,334.173 504.506,336.386C505.66,337.327 505.171,339.767 504.23,342.26L517.201,347.877L517.541,347.73L520.206,341.096C520.206,341.096 529.128,339.812 526.701,333.959C524.274,328.106 533.695,329.891 532.34,327.679C530.983,325.466 527.13,322.825 521.635,322.54Z" style="fill:rgb(41,185,145);fill-rule:nonzero;"/>
            </g>
            <g transform="matrix(1,0,0,1,-298.488,-58.126)">
                <path d="M586.129,257.921L582.566,256.378C579.751,258.891 578.015,261.039 578.872,261.735C581.513,263.875 571.021,270.94 567.667,273.652C564.313,276.364 556.177,271.868 556.248,278.791C556.319,285.714 545.828,288.568 550.753,289.639C555.677,290.71 560.102,286.07 561.672,284.286C563.242,282.502 564.884,285.643 569.095,288.782C573.305,291.923 579.942,280.361 584.724,283.93C589.506,287.498 573.52,288.997 581.155,290.567C587.573,291.887 584.537,295.173 583.405,296.188L575.395,297.819L574.285,297.501L574.216,297.475L574.147,297.458L557.998,292.777C557.61,292.665 557.215,292.613 556.819,292.613C555.761,292.613 554.729,293.01 553.928,293.749L550.899,296.58L546.469,300.728C544.446,302.62 543.612,305.468 544.309,308.161L546.262,315.741C547.002,318.598 549.652,320.542 552.595,320.378L557.895,320.086L562.48,319.836L565.75,330.445L567.807,336.915L568.921,340.424L579.122,344.843L581.409,341.544L582.889,339.41L587.226,333.164L593.445,320.516C594.607,318.15 593.402,315.302 590.899,314.493L588.172,313.607C586.614,313.1 585.521,311.697 585.41,310.063L585.049,304.84C585.013,304.258 585.267,303.785 585.648,303.479C588.142,305.247 591.919,308.176 593.931,307.98C596.143,307.767 594.43,299.845 598.427,300.13C599.477,300.205 601.278,301.354 603.36,303.001L603.36,250.457L586.129,257.921Z" style="fill:rgb(41,185,145);fill-rule:nonzero;"/>
            </g>
            <g transform="matrix(1,0,0,1,-298.488,-58.126)">
                <path d="M522.404,263.612C522.386,263.763 522.406,263.915 522.466,264.054L524.01,267.682L525.043,270.11L525.178,270.329L528.05,273.714C528.449,274.185 529.202,274.089 529.47,273.532L532.325,267.601C532.396,267.454 532.508,267.33 532.647,267.244L534.096,266.353L534.433,266.146L534.433,250.457L523.469,255.206L522.404,263.612Z" style="fill:rgb(10,140,100);fill-rule:nonzero;"/>
            </g>
            <g transform="matrix(1,0,0,1,-298.488,-58.126)">
                <path d="M498.653,260.807C495.228,258.309 495.514,270.727 495.514,270.727C495.514,270.727 486.235,267.943 486.378,263.661C486.454,261.386 489.635,257.133 492.599,253.648L482.736,257.921L482.736,313.004C487.907,315.398 496.37,318.115 496.37,318.115C496.37,318.115 492.873,320.97 492.802,322.184C492.73,323.396 495.228,327.179 496.727,330.891C497.441,332.66 498.63,333.486 499.969,334.108L499.969,313.791C499.455,314.097 499.143,314.353 499.096,314.393C498.363,314.057 496.59,313.251 492.658,311.478C483.167,307.195 484.166,298.988 483.848,298.838C483.53,298.687 486.449,298.774 489.447,298.774C492.444,298.774 494.729,302.2 497.369,302.628C500.01,303.057 497.797,301.344 497.654,295.063C497.614,293.301 498.598,291.741 499.969,290.313L499.969,262.414C499.668,261.807 499.261,261.249 498.653,260.807Z" style="fill:rgb(10,140,100);fill-rule:nonzero;"/>
            </g>
            <g transform="matrix(1,0,0,1,-298.488,-58.126)">
                <path d="M521.635,322.54C516.58,322.277 521.057,317.188 517.201,316.873L517.201,347.877L517.541,347.729L520.206,341.096C520.206,341.096 529.128,339.812 526.701,333.959C524.274,328.106 533.695,329.891 532.34,327.679C530.983,325.466 527.13,322.825 521.635,322.54Z" style="fill:rgb(10,140,100);fill-rule:nonzero;"/>
            </g>
            <g transform="matrix(1,0,0,1,-298.488,-58.126)">
                <path d="M556.248,278.791C556.284,282.262 553.665,284.71 551.665,286.423L551.665,289.774C556.216,290.144 560.199,285.96 561.672,284.286C563.217,282.531 564.836,285.542 568.896,288.63L568.896,272.695C568.428,273.053 568.009,273.376 567.667,273.652C564.313,276.364 556.177,271.868 556.248,278.791Z" style="fill:rgb(10,140,100);fill-rule:nonzero;"/>
            </g>
            <g transform="matrix(1,0,0,1,-298.488,-58.126)">
                <path d="M556.819,292.613C555.761,292.613 554.729,293.01 553.928,293.749L551.665,295.865L551.665,320.355C551.971,320.385 552.28,320.396 552.595,320.378L557.895,320.086L562.48,319.836L565.75,330.445L567.807,336.915L568.896,340.349L568.896,295.936L557.998,292.777C557.61,292.665 557.215,292.613 556.819,292.613Z" style="fill:rgb(10,140,100);fill-rule:nonzero;"/>
            </g>
            <g transform="matrix(1,0,0,1,-298.488,-58.126)">
                <path d="M586.129,257.921L586.129,303.822C588.605,305.601 592.044,308.163 593.931,307.98C596.143,307.767 594.43,299.845 598.427,300.13C599.477,300.205 601.278,301.354 603.36,303.001L603.36,250.457L586.129,257.921Z" style="fill:rgb(10,140,100);fill-rule:nonzero;"/>
            </g>
            <g transform="matrix(1,0,0,1,-298.488,-58.126)">
                <path d="M590.899,314.493L588.172,313.607C587.321,313.33 586.618,312.78 586.129,312.078L586.129,334.743L587.226,333.164L593.445,320.516C594.607,318.15 593.402,315.302 590.899,314.493Z" style="fill:rgb(10,140,100);fill-rule:nonzero;"/>
            </g>
            <g transform="matrix(1,0,0,1,-298.488,-58.126)">
                <path d="M628.721,259.313C628.721,273.798 616.979,285.539 602.495,285.539C588.011,285.539 576.27,273.798 576.27,259.313C576.27,244.83 588.011,233.088 602.495,233.088C616.979,233.088 628.721,244.83 628.721,259.313Z" style="fill:rgb(183,43,63);fill-rule:nonzero;"/>
            </g>
            <g transform="matrix(1,0,0,1,-298.488,-58.126)">
                <path d="M623.882,259.313C623.882,273.798 612.14,285.539 597.656,285.539C583.172,285.539 571.431,273.798 571.431,259.313C571.431,244.83 583.172,233.088 597.656,233.088C612.14,233.088 623.882,244.83 623.882,259.313Z" style="fill:rgb(239,73,90);fill-rule:nonzero;"/>
            </g>
            <g transform="matrix(1,0,0,1,-298.488,-58.126)">
                <path d="M620.314,259.313C620.314,271.827 610.17,281.972 597.656,281.972C585.143,281.972 574.998,271.827 574.998,259.313C574.998,246.8 585.143,236.655 597.656,236.655C610.17,236.655 620.314,246.8 620.314,259.313Z" style="fill:rgb(183,43,63);fill-rule:nonzero;"/>
            </g>
            <g transform="matrix(1,0,0,1,-298.488,-58.126)">
                <path d="M617.515,259.313C617.515,270.281 608.624,279.173 597.656,279.173C586.688,279.173 577.797,270.281 577.797,259.313C577.797,248.346 586.688,239.455 597.656,239.455C608.624,239.455 617.515,248.346 617.515,259.313Z" style="fill:white;fill-rule:nonzero;"/>
            </g>
            <g transform="matrix(1,0,0,1,-298.488,-58.126)">
                <path d="M597.656,239.455C597.165,239.455 596.681,239.479 596.199,239.514C606.485,240.261 614.601,248.836 614.601,259.313C614.601,269.791 606.485,278.367 596.199,279.113C596.681,279.148 597.165,279.173 597.656,279.173C608.624,279.173 617.515,270.281 617.515,259.313C617.515,248.346 608.624,239.455 597.656,239.455Z" style="fill:rgb(224,242,243);fill-rule:nonzero;"/>
            </g>
            <g transform="matrix(1,0,0,1,-298.488,-58.126)">
                <path d="M601.516,263.801L608.072,248.745L593.018,255.302L601.516,263.801Z" style="fill:rgb(52,170,221);fill-rule:nonzero;"/>
            </g>
            <g transform="matrix(1,0,0,1,-298.488,-58.126)">
                <path d="M601.516,263.799L597.269,259.551L608.073,248.746L601.516,263.799Z" style="fill:rgb(42,151,198);fill-rule:nonzero;"/>
            </g>
            <g transform="matrix(1,0,0,1,-298.488,-58.126)">
                <path d="M593.018,255.302L586.461,270.357L601.516,263.801L593.018,255.302Z" style="fill:rgb(239,73,90);fill-rule:nonzero;"/>
            </g>
            <g transform="matrix(1,0,0,1,-298.488,-58.126)">
                <path d="M601.516,263.799L586.46,270.359L597.269,259.551L601.516,263.799Z" style="fill:rgb(206,46,71);fill-rule:nonzero;"/>
            </g>
            <g transform="matrix(1,0,0,1,-298.488,-58.126)">
                <path d="M599.491,259.594C599.491,258.331 598.467,257.307 597.203,257.307C595.939,257.307 594.915,258.331 594.915,259.594C594.915,260.857 595.939,261.882 597.203,261.882C598.467,261.882 599.491,260.857 599.491,259.594Z" style="fill:white;fill-rule:nonzero;"/>
            </g>
            <g transform="matrix(1,0,0,1,-298.488,-58.126)">
                <path d="M430.391,215.314L414.681,215.314L416.655,218.849L445.381,218.849L445.381,246.38C446.565,247.154 447.745,247.891 448.915,248.587L448.915,215.314L430.391,215.314Z" style="fill:rgb(154,26,50);fill-rule:nonzero;"/>
            </g>
            <g transform="matrix(1,0,0,1,-298.488,-58.126)">
                <path d="M400.438,215.314L400.438,271.744L403.974,271.744L403.974,218.849L445.381,218.849L445.381,271.744L448.915,271.744L448.915,215.314L400.438,215.314Z" style="fill:rgb(206,37,64);fill-rule:nonzero;"/>
            </g>
            <g transform="matrix(1,0,0,1,-298.488,-58.126)">
                <path d="M452.299,271.747L477.576,271.747C480.217,271.747 482.357,273.888 482.357,276.528L482.357,387.865C482.357,390.506 480.217,392.646 477.576,392.646L452.299,392.646C449.658,392.646 447.518,390.506 447.518,387.865L447.518,276.528C447.518,273.888 449.658,271.747 452.299,271.747Z" style="fill:rgb(206,37,64);fill-rule:nonzero;"/>
            </g>
            <g transform="matrix(1,0,0,1,-298.488,-58.126)">
                <path d="M468.939,271.747L465.705,271.747C468.346,271.747 471.699,273.888 471.699,276.528L471.699,387.865C471.699,390.506 468.346,392.646 465.705,392.646L468.939,392.646C471.58,392.646 473.722,390.506 473.722,387.865L473.722,276.528C473.722,273.888 471.58,271.747 468.939,271.747Z" style="fill:rgb(154,26,50);fill-rule:nonzero;"/>
            </g>
            <g transform="matrix(1,0,0,1,-298.488,-58.126)">
                <path d="M456.079,271.747L383.237,271.747C380.596,271.747 378.455,273.888 378.455,276.528L378.455,387.865C378.455,390.506 380.596,392.646 383.237,392.646L456.079,392.646C458.72,392.646 460.86,390.506 460.86,387.865L460.86,276.528C460.86,273.888 458.72,271.747 456.079,271.747Z" style="fill:rgb(239,73,90);fill-rule:nonzero;"/>
            </g>
            <g transform="matrix(1,0,0,1,-298.488,-58.126)">
                <path d="M448.631,387.781L391.646,387.781C390.84,387.781 390.187,388.435 390.187,389.241L390.187,392.646L450.09,392.646L450.09,389.241C450.09,388.435 449.437,387.781 448.631,387.781Z" style="fill:rgb(154,26,50);fill-rule:nonzero;"/>
            </g>
            <g transform="matrix(1,0,0,1,-298.488,-58.126)">
                <path d="M401.002,392.623L387.525,392.623L387.525,397.046C387.525,400.767 390.542,403.784 394.264,403.784C397.985,403.784 401.002,400.767 401.002,397.046L401.002,392.623Z" style="fill:rgb(154,26,50);fill-rule:nonzero;"/>
            </g>
            <g transform="matrix(1,0,0,1,-298.488,-58.126)">
                <path d="M418.681,392.623L405.204,392.623L405.204,397.046C405.204,400.767 408.222,403.784 411.942,403.784C415.664,403.784 418.681,400.767 418.681,397.046L418.681,392.623Z" style="fill:rgb(103,9,30);fill-rule:nonzero;"/>
            </g>
            <g transform="matrix(1,0,0,1,-298.488,-58.126)">
                <path d="M470.87,392.623L457.394,392.623L457.394,397.046C457.394,400.767 460.41,403.784 464.132,403.784C467.854,403.784 470.87,400.767 470.87,397.046L470.87,392.623Z" style="fill:rgb(103,9,30);fill-rule:nonzero;"/>
            </g>
            <g transform="matrix(1,0,0,1,-298.488,-58.126)">
                <rect x="387.525" y="392.623" width="13.477" height="2.569" style="fill:rgb(123,17,37);fill-rule:nonzero;"/>
            </g>
            <g transform="matrix(1,0,0,1,-298.488,-58.126)">
                <path d="M455.517,392.623L442.04,392.623L442.04,397.046C442.04,400.767 445.057,403.784 448.778,403.784C452.5,403.784 455.517,400.767 455.517,397.046L455.517,392.623Z" style="fill:rgb(154,26,50);fill-rule:nonzero;"/>
            </g>
            <g transform="matrix(1,0,0,1,-298.488,-58.126)">
                <rect x="442.04" y="392.623" width="13.477" height="2.569" style="fill:rgb(123,17,37);fill-rule:nonzero;"/>
            </g>
            <g transform="matrix(1,0,0,1,-298.488,-58.126)">
                <path d="M395.477,284.14C393.703,284.14 392.267,285.577 392.267,287.35L392.267,374.374C392.267,376.146 393.703,377.584 395.477,377.584C397.249,377.584 398.686,376.146 398.686,374.374L398.686,287.35C398.686,285.577 397.249,284.14 395.477,284.14Z" style="fill:rgb(154,26,50);fill-rule:nonzero;"/>
            </g>
            <g transform="matrix(1,0,0,1,-298.488,-58.126)">
                <path d="M412.12,284.14C410.348,284.14 408.91,285.577 408.91,287.35L408.91,374.374C408.91,376.146 410.348,377.584 412.12,377.584C413.893,377.584 415.33,376.146 415.33,374.374L415.33,287.35C415.33,285.577 413.893,284.14 412.12,284.14Z" style="fill:rgb(154,26,50);fill-rule:nonzero;"/>
            </g>
            <g transform="matrix(1,0,0,1,-298.488,-58.126)">
                <path d="M428.764,284.14C426.991,284.14 425.554,285.577 425.554,287.35L425.554,374.374C425.554,376.146 426.991,377.584 428.764,377.584C430.537,377.584 431.974,376.146 431.974,374.374L431.974,287.35C431.974,285.577 430.537,284.14 428.764,284.14Z" style="fill:rgb(154,26,50);fill-rule:nonzero;"/>
            </g>
            <g transform="matrix(1,0,0,1,-298.488,-58.126)">
                <path d="M445.408,284.14C443.636,284.14 442.198,285.577 442.198,287.35L442.198,374.374C442.198,376.146 443.636,377.584 445.408,377.584C447.181,377.584 448.618,376.146 448.618,374.374L448.618,287.35C448.618,285.577 447.181,284.14 445.408,284.14Z" style="fill:rgb(154,26,50);fill-rule:nonzero;"/>
            </g>
            <g transform="matrix(1,0,0,1,-298.488,-58.126)">
                <path d="M396.72,377.332C396.333,377.497 395.917,377.583 395.473,377.583C393.703,377.583 392.27,376.149 392.27,374.372L392.27,287.346C392.27,285.576 393.703,284.143 395.473,284.143C395.917,284.143 396.333,284.229 396.72,284.394C395.566,284.881 394.764,286.021 394.764,287.346L394.764,374.372C394.764,375.705 395.566,376.845 396.72,377.332Z" style="fill:rgb(206,37,64);fill-rule:nonzero;"/>
            </g>
            <g transform="matrix(1,0,0,1,-298.488,-58.126)">
                <path d="M413.367,377.332C412.979,377.497 412.564,377.583 412.12,377.583C410.35,377.583 408.909,376.149 408.909,374.372L408.909,287.346C408.909,285.576 410.35,284.143 412.12,284.143C412.564,284.143 412.979,284.229 413.367,284.394C412.221,284.874 411.403,286.014 411.403,287.346L411.403,374.372C411.403,375.705 412.221,376.852 413.367,377.332Z" style="fill:rgb(206,37,64);fill-rule:nonzero;"/>
            </g>
            <g transform="matrix(1,0,0,1,-298.488,-58.126)">
                <path d="M430.014,377.332C429.627,377.489 429.204,377.583 428.767,377.583C426.99,377.583 425.557,376.149 425.557,374.372L425.557,287.346C425.557,285.576 426.99,284.143 428.767,284.143C429.204,284.143 429.627,284.229 430.014,284.394C428.86,284.881 428.051,286.021 428.051,287.346L428.051,374.372C428.051,375.705 428.86,376.845 430.014,377.332Z" style="fill:rgb(206,37,64);fill-rule:nonzero;"/>
            </g>
            <g transform="matrix(1,0,0,1,-298.488,-58.126)">
                <path d="M446.653,377.332C446.267,377.497 445.852,377.583 445.407,377.583C443.637,377.583 442.196,376.149 442.196,374.372L442.196,287.346C442.196,285.576 443.637,284.143 445.407,284.143C445.852,284.143 446.267,284.229 446.653,284.394C445.5,284.881 444.697,286.021 444.697,287.346L444.697,374.372C444.697,375.705 445.5,376.845 446.653,377.332Z" style="fill:rgb(206,37,64);fill-rule:nonzero;"/>
            </g>
            <g transform="matrix(1,0,0,1,-298.488,-58.126)">
                <path d="M476.479,252.504C480.395,247.921 468.925,231.69 450.858,216.252C432.792,200.813 414.971,192.014 411.054,196.597C407.138,201.181 416.834,219.488 434.9,234.926C452.968,250.364 472.563,257.089 476.479,252.504Z" style="fill:rgb(254,194,13);fill-rule:nonzero;"/>
            </g>
            <g transform="matrix(1,0,0,1,-298.488,-58.126)">
                <path d="M476.492,252.49C476.493,252.487 476.495,252.485 476.497,252.483C476.495,252.485 476.493,252.488 476.492,252.49ZM476.504,252.475C476.506,252.473 476.508,252.47 476.51,252.467C476.508,252.47 476.506,252.473 476.504,252.475ZM476.515,252.461C476.517,252.459 476.52,252.455 476.522,252.453C476.52,252.456 476.518,252.458 476.515,252.461ZM476.527,252.447C476.53,252.444 476.532,252.441 476.534,252.438C476.532,252.441 476.529,252.444 476.527,252.447ZM476.538,252.433C476.541,252.43 476.544,252.426 476.546,252.423C476.543,252.426 476.541,252.43 476.538,252.433ZM476.549,252.419C476.563,252.402 476.576,252.384 476.589,252.367C476.576,252.385 476.563,252.402 476.549,252.419ZM476.59,252.366C476.593,252.362 476.596,252.358 476.6,252.353C476.596,252.357 476.593,252.362 476.59,252.366ZM476.601,252.352C476.604,252.348 476.607,252.343 476.61,252.339C476.607,252.343 476.604,252.347 476.601,252.352ZM476.612,252.337C476.615,252.333 476.618,252.328 476.621,252.324C476.618,252.328 476.615,252.333 476.612,252.337ZM476.621,252.324C476.78,252.105 476.907,251.863 477.005,251.598C476.907,251.862 476.78,252.105 476.621,252.324ZM477.005,251.598C477.007,251.593 477.009,251.587 477.011,251.581C477.009,251.587 477.007,251.593 477.005,251.598ZM477.011,251.58C477.013,251.575 477.015,251.569 477.017,251.564C477.015,251.569 477.013,251.575 477.011,251.58ZM477.017,251.563C477.025,251.541 477.033,251.518 477.041,251.495C477.033,251.518 477.025,251.541 477.017,251.563ZM477.042,251.493C477.043,251.488 477.045,251.484 477.046,251.479C477.045,251.484 477.043,251.489 477.042,251.493ZM477.048,251.474C477.049,251.47 477.051,251.466 477.052,251.461C477.051,251.466 477.049,251.47 477.048,251.474ZM477.054,251.455C477.055,251.452 477.057,251.447 477.058,251.443C477.056,251.447 477.055,251.451 477.054,251.455ZM477.06,251.436C477.061,251.432 477.063,251.428 477.064,251.424C477.062,251.428 477.061,251.432 477.06,251.436ZM477.066,251.417C477.067,251.413 477.068,251.41 477.069,251.406C477.068,251.41 477.067,251.413 477.066,251.417ZM477.073,251.395C477.074,251.392 477.075,251.388 477.076,251.385C477.075,251.389 477.074,251.392 477.073,251.395ZM477.081,251.368C477.081,251.366 477.082,251.364 477.082,251.362C477.082,251.364 477.081,251.366 477.081,251.368ZM477.086,251.348C477.087,251.346 477.088,251.343 477.088,251.341C477.088,251.343 477.087,251.346 477.086,251.348ZM477.092,251.328C477.093,251.326 477.093,251.324 477.094,251.322C477.093,251.324 477.093,251.326 477.092,251.328ZM477.098,251.308C477.098,251.306 477.099,251.304 477.099,251.302C477.099,251.304 477.098,251.306 477.098,251.308ZM477.103,251.286C477.104,251.285 477.104,251.284 477.104,251.282C477.104,251.284 477.104,251.285 477.103,251.286Z" style="fill:rgb(253,209,179);fill-rule:nonzero;"/>
            </g>
            <g transform="matrix(1,0,0,1,-298.488,-58.126)">
                <path d="M445.381,242.854C441.912,240.546 438.378,237.898 434.9,234.926C434.883,234.911 434.867,234.897 434.85,234.882C434.866,234.896 434.884,234.912 434.9,234.926C438.378,237.898 441.912,240.546 445.381,242.854Z" style="fill:rgb(78,180,170);fill-rule:nonzero;"/>
            </g>
            <g transform="matrix(1,0,0,1,-298.488,-58.126)">
                <path d="M434.827,234.863C434.817,234.854 434.808,234.847 434.798,234.838C434.808,234.847 434.817,234.854 434.827,234.863ZM434.778,234.821C434.767,234.811 434.757,234.803 434.746,234.793C434.757,234.803 434.767,234.811 434.778,234.821ZM434.728,234.778C434.716,234.768 434.705,234.759 434.694,234.749C434.706,234.759 434.716,234.768 434.728,234.778ZM434.674,234.732C434.664,234.723 434.654,234.714 434.644,234.706C434.654,234.714 434.664,234.723 434.674,234.732ZM434.621,234.686C434.611,234.678 434.602,234.67 434.592,234.661C434.601,234.669 434.612,234.679 434.621,234.686ZM434.57,234.642C434.561,234.634 434.55,234.625 434.541,234.617C434.551,234.626 434.56,234.634 434.57,234.642ZM434.518,234.598C434.509,234.59 434.499,234.581 434.49,234.573C434.499,234.581 434.51,234.59 434.518,234.598ZM434.467,234.553C434.458,234.545 434.448,234.537 434.439,234.529C434.448,234.537 434.458,234.546 434.467,234.553ZM434.416,234.509C434.406,234.501 434.397,234.493 434.387,234.485C434.397,234.493 434.406,234.501 434.416,234.509ZM434.365,234.465C434.355,234.457 434.346,234.449 434.336,234.44C434.345,234.448 434.356,234.458 434.365,234.465ZM434.314,234.421C434.305,234.413 434.294,234.404 434.285,234.396C434.295,234.404 434.304,234.412 434.314,234.421ZM434.263,234.377C434.252,234.368 434.241,234.358 434.231,234.349C434.241,234.358 434.253,234.368 434.263,234.377ZM434.213,234.333C434.202,234.324 434.191,234.314 434.179,234.304C434.19,234.314 434.202,234.324 434.213,234.333ZM434.161,234.288C434.15,234.279 434.139,234.269 434.128,234.259C434.139,234.269 434.15,234.279 434.161,234.288ZM434.11,234.244C434.077,234.215 434.043,234.185 434.009,234.156C434.044,234.186 434.076,234.214 434.11,234.244ZM433.992,234.141C433.981,234.131 433.969,234.121 433.958,234.111C433.969,234.121 433.981,234.132 433.992,234.141ZM433.94,234.096C433.93,234.086 433.918,234.076 433.907,234.067C433.918,234.076 433.929,234.086 433.94,234.096ZM433.889,234.051C433.878,234.041 433.868,234.032 433.857,234.023C433.868,234.032 433.878,234.041 433.889,234.051ZM433.836,234.004C433.825,233.995 433.816,233.987 433.806,233.978C433.816,233.987 433.826,233.996 433.836,234.004ZM433.786,233.96C433.776,233.952 433.766,233.943 433.756,233.935C433.766,233.943 433.776,233.952 433.786,233.96ZM433.732,233.913C433.724,233.906 433.715,233.899 433.707,233.891C433.715,233.898 433.724,233.906 433.732,233.913ZM433.681,233.869C433.673,233.862 433.665,233.854 433.657,233.847C433.666,233.855 433.673,233.861 433.681,233.869ZM433.629,233.823C433.623,233.817 433.615,233.81 433.608,233.804C433.615,233.81 433.623,233.817 433.629,233.823ZM433.58,233.78C433.573,233.773 433.565,233.766 433.557,233.759C433.564,233.766 433.573,233.773 433.58,233.78ZM433.53,233.735C433.523,233.729 433.516,233.723 433.509,233.717C433.516,233.723 433.522,233.728 433.53,233.735ZM433.478,233.689C433.473,233.685 433.467,233.68 433.462,233.675C433.467,233.68 433.473,233.685 433.478,233.689ZM433.428,233.645C433.423,233.64 433.417,233.636 433.412,233.631C433.417,233.635 433.423,233.64 433.428,233.645ZM433.38,233.602C433.374,233.597 433.368,233.592 433.363,233.587C433.368,233.592 433.374,233.597 433.38,233.602Z" style="fill:rgb(78,180,170);fill-rule:nonzero;"/>
            </g>
            <g transform="matrix(1,0,0,1,-298.488,-58.126)">
                <path d="M472.166,253.92C466.994,253.92 458.37,250.849 448.915,245.103C447.748,244.394 446.569,243.644 445.381,242.854C441.912,240.546 438.378,237.898 434.9,234.926C434.884,234.912 434.866,234.896 434.85,234.882C434.842,234.876 434.834,234.869 434.827,234.863C434.817,234.854 434.808,234.847 434.798,234.838C434.791,234.832 434.784,234.826 434.778,234.821C434.767,234.811 434.757,234.803 434.746,234.793C434.74,234.788 434.733,234.783 434.728,234.778C434.716,234.768 434.706,234.759 434.694,234.749C434.687,234.743 434.681,234.738 434.674,234.732C434.664,234.723 434.654,234.714 434.644,234.706C434.636,234.699 434.629,234.693 434.621,234.686C434.612,234.679 434.601,234.669 434.592,234.661C434.585,234.655 434.577,234.648 434.57,234.642C434.56,234.634 434.551,234.626 434.541,234.617C434.533,234.611 434.526,234.604 434.518,234.598C434.51,234.59 434.499,234.581 434.49,234.573C434.482,234.566 434.475,234.56 434.467,234.553C434.458,234.546 434.448,234.537 434.439,234.529C434.432,234.523 434.423,234.516 434.416,234.509C434.406,234.501 434.397,234.493 434.387,234.485C434.38,234.478 434.372,234.472 434.365,234.465C434.356,234.458 434.345,234.448 434.336,234.44C434.328,234.434 434.321,234.428 434.314,234.421C434.304,234.412 434.295,234.404 434.285,234.396C434.277,234.389 434.27,234.383 434.263,234.377C434.253,234.368 434.241,234.358 434.231,234.349C434.225,234.344 434.219,234.339 434.213,234.333C434.202,234.324 434.19,234.314 434.179,234.304C434.173,234.299 434.167,234.294 434.161,234.288C434.15,234.279 434.139,234.269 434.128,234.259C434.122,234.254 434.116,234.249 434.11,234.244C434.076,234.214 434.044,234.186 434.009,234.156C434.003,234.151 433.998,234.146 433.992,234.141C433.981,234.132 433.969,234.121 433.958,234.111C433.952,234.106 433.946,234.101 433.94,234.096C433.929,234.086 433.918,234.076 433.907,234.067C433.901,234.061 433.895,234.056 433.889,234.051C433.878,234.041 433.868,234.032 433.857,234.023C433.85,234.017 433.843,234.01 433.836,234.004C433.826,233.996 433.816,233.987 433.806,233.978C433.8,233.972 433.792,233.966 433.786,233.96C433.776,233.952 433.766,233.943 433.756,233.935C433.748,233.927 433.74,233.92 433.732,233.913C433.724,233.906 433.715,233.898 433.707,233.891C433.699,233.884 433.69,233.876 433.681,233.869C433.673,233.861 433.666,233.855 433.657,233.847C433.647,233.839 433.639,233.831 433.629,233.823C433.623,233.817 433.615,233.81 433.608,233.804C433.599,233.796 433.59,233.788 433.58,233.78C433.573,233.773 433.564,233.766 433.557,233.759C433.548,233.751 433.539,233.743 433.53,233.735C433.522,233.728 433.516,233.723 433.509,233.717C433.499,233.708 433.488,233.698 433.478,233.689C433.473,233.685 433.467,233.68 433.462,233.675C433.451,233.665 433.439,233.655 433.428,233.645C433.423,233.64 433.417,233.635 433.412,233.631C433.401,233.621 433.39,233.612 433.38,233.602C433.374,233.597 433.368,233.592 433.363,233.587C425.593,226.698 419.489,219.341 415.5,212.949C419.46,218.098 424.532,223.536 430.526,228.659C444.843,240.892 460.118,247.653 467.792,247.653C469.803,247.653 471.292,247.188 472.106,246.237C473.648,244.432 472.801,240.819 470.107,236.159C470.109,236.157 470.11,236.155 470.112,236.152C470.112,236.151 470.113,236.15 470.114,236.15C470.13,236.127 470.147,236.104 470.163,236.081C475.261,242.717 477.907,248.254 477.104,251.282C477.104,251.284 477.104,251.285 477.103,251.286C477.102,251.291 477.101,251.297 477.099,251.302C477.099,251.304 477.098,251.306 477.098,251.308C477.096,251.312 477.095,251.317 477.094,251.322C477.093,251.324 477.093,251.326 477.092,251.328C477.091,251.332 477.09,251.336 477.088,251.341C477.088,251.343 477.087,251.346 477.086,251.348C477.085,251.353 477.084,251.358 477.082,251.362C477.082,251.364 477.081,251.366 477.081,251.368C477.079,251.373 477.077,251.379 477.076,251.385C477.075,251.388 477.074,251.392 477.073,251.395C477.071,251.399 477.07,251.402 477.069,251.406C477.068,251.41 477.067,251.413 477.066,251.417C477.065,251.419 477.064,251.422 477.064,251.424C477.063,251.428 477.061,251.432 477.06,251.436C477.059,251.438 477.058,251.441 477.058,251.443C477.057,251.447 477.055,251.452 477.054,251.455C477.053,251.457 477.053,251.459 477.052,251.461C477.051,251.466 477.049,251.47 477.048,251.474C477.047,251.476 477.047,251.478 477.046,251.479C477.045,251.484 477.043,251.488 477.042,251.493C477.041,251.494 477.041,251.495 477.041,251.495C477.033,251.518 477.025,251.541 477.017,251.563L477.017,251.564C477.015,251.569 477.013,251.575 477.011,251.58L477.011,251.581C477.009,251.587 477.007,251.593 477.005,251.598C476.907,251.863 476.78,252.105 476.621,252.324C476.618,252.328 476.615,252.333 476.612,252.337C476.611,252.338 476.611,252.338 476.61,252.339C476.607,252.343 476.604,252.348 476.601,252.352C476.6,252.352 476.6,252.353 476.6,252.353C476.596,252.358 476.593,252.362 476.59,252.366C476.59,252.366 476.59,252.367 476.589,252.367C476.576,252.384 476.563,252.402 476.549,252.419C476.548,252.42 476.547,252.422 476.546,252.423C476.544,252.426 476.541,252.43 476.538,252.433C476.537,252.434 476.536,252.436 476.534,252.438C476.532,252.441 476.53,252.444 476.527,252.447C476.525,252.449 476.524,252.451 476.522,252.453C476.52,252.455 476.517,252.459 476.515,252.461C476.514,252.463 476.512,252.465 476.51,252.467C476.508,252.47 476.506,252.473 476.504,252.475C476.501,252.478 476.499,252.48 476.497,252.483C476.495,252.485 476.493,252.487 476.492,252.49C476.488,252.494 476.484,252.499 476.479,252.504C475.666,253.456 474.177,253.92 472.166,253.92Z" style="fill:rgb(249,159,27);fill-rule:nonzero;"/>
            </g>
            <g transform="matrix(1,0,0,1,-298.488,-58.126)">
                <path d="M468.959,237.616C459.895,248.224 416.856,211.446 425.92,200.839C434.984,190.232 453.553,188.011 465.437,198.166C477.322,208.322 478.022,227.009 468.959,237.616Z" style="fill:rgb(254,194,13);fill-rule:nonzero;"/>
            </g>
            <g transform="matrix(1,0,0,1,-298.488,-58.126)">
                <path d="M431.886,195.888C429.669,197.165 427.65,198.815 425.92,200.839C416.856,211.446 459.895,248.224 468.959,237.616C470.688,235.592 472.004,233.34 472.919,230.952C461.032,233.084 431.634,207.962 431.886,195.888Z" style="fill:rgb(242,103,33);fill-rule:nonzero;"/>
            </g>
            <g transform="matrix(1,0,0,1,-298.488,-58.126)">
                <path d="M468.959,237.618L468.813,237.783L468.74,237.856L468.588,238.007L468.39,238.184L468.183,238.351L468.013,238.475L467.965,238.507L467.748,238.647C467.522,238.785 467.284,238.905 467.034,239.008L466.789,239.104C466.615,239.166 466.435,239.223 466.253,239.27L465.983,239.336L465.756,239.382L465.705,239.391C465.607,239.408 465.513,239.423 465.417,239.435L465.412,239.438C465.32,239.45 465.227,239.46 465.132,239.471L465.059,239.478L464.822,239.497C464.724,239.502 464.621,239.509 464.519,239.512C464.206,239.521 463.887,239.518 463.557,239.499C463.45,239.493 463.344,239.484 463.235,239.474C463.145,239.467 463.052,239.458 462.96,239.45C461.612,239.304 460.133,238.938 458.567,238.385L458.369,238.315C458.153,238.234 457.936,238.153 457.715,238.068C457.604,238.026 457.493,237.981 457.382,237.936L457.111,237.828C456.958,237.764 456.804,237.7 456.648,237.631C456.29,237.478 455.927,237.316 455.562,237.146C455.429,237.085 455.298,237.022 455.165,236.958C454.995,236.879 454.828,236.797 454.661,236.713C454.446,236.605 454.225,236.497 454.006,236.382C453.725,236.238 453.442,236.088 453.158,235.936C453.017,235.859 452.874,235.782 452.73,235.703C452.587,235.624 452.444,235.543 452.303,235.463C452.158,235.381 452.015,235.299 451.87,235.217C451.293,234.888 450.715,234.54 450.134,234.178C449.988,234.087 449.843,233.997 449.697,233.906C449.114,233.539 448.53,233.158 447.946,232.761C447.655,232.562 447.363,232.362 447.07,232.159C446.925,232.058 446.779,231.954 446.632,231.852L446.194,231.54C450.201,230.468 454.008,228.519 457.302,225.718C463.28,229.434 469.036,231.649 472.919,230.952C472.317,232.52 471.546,234.028 470.596,235.451C470.534,235.544 470.472,235.638 470.406,235.731C470.333,235.842 470.256,235.949 470.179,236.056C470.109,236.155 470.038,236.252 469.966,236.35L469.84,236.518L469.643,236.776C469.549,236.899 469.453,237.019 469.356,237.139C469.227,237.301 469.094,237.46 468.959,237.618Z" style="fill:rgb(242,103,33);fill-rule:nonzero;"/>
            </g>
            <g transform="matrix(1,0,0,1,-298.488,-58.126)">
                <path d="M464.879,239.492L464.983,239.484C464.949,239.487 464.914,239.49 464.879,239.492ZM463.269,239.477C463.227,239.474 463.183,239.47 463.14,239.466C463.172,239.469 463.204,239.472 463.235,239.474C463.247,239.475 463.258,239.476 463.269,239.477ZM465.416,239.436L465.417,239.435C465.429,239.434 465.441,239.432 465.453,239.431C465.441,239.432 465.428,239.434 465.416,239.436ZM466.039,239.322L466.22,239.278C466.16,239.294 466.1,239.308 466.039,239.322ZM466.84,239.084L466.975,239.031C466.93,239.049 466.885,239.067 466.84,239.084Z" style="fill:rgb(241,87,34);fill-rule:nonzero;"/>
            </g>
            <g transform="matrix(1,0,0,1,-298.488,-58.126)">
                <path d="M467.782,238.625C467.841,238.588 467.901,238.55 467.958,238.511L467.959,238.511C467.901,238.55 467.841,238.588 467.782,238.625Z" style="fill:rgb(249,159,27);fill-rule:nonzero;"/>
            </g>
            <g transform="matrix(1,0,0,1,-298.488,-58.126)">
                <path d="M467.782,238.625L467.958,238.511C467.901,238.55 467.841,238.588 467.782,238.625Z" style="fill:rgb(241,87,34);fill-rule:nonzero;"/>
            </g>
            <g transform="matrix(1,0,0,1,-298.488,-58.126)">
                <path d="M468.039,238.455L468.04,238.455C468.083,238.424 468.126,238.393 468.168,238.361C468.126,238.393 468.083,238.424 468.039,238.455Z" style="fill:rgb(249,159,27);fill-rule:nonzero;"/>
            </g>
            <g transform="matrix(1,0,0,1,-298.488,-58.126)">
                <path d="M468.04,238.455L468.168,238.361C468.126,238.393 468.083,238.424 468.04,238.455Z" style="fill:rgb(241,87,34);fill-rule:nonzero;"/>
            </g>
            <g transform="matrix(1,0,0,1,-298.488,-58.126)">
                <path d="M468.192,238.343C468.258,238.293 468.323,238.241 468.386,238.187C468.322,238.241 468.258,238.293 468.192,238.343Z" style="fill:rgb(249,159,27);fill-rule:nonzero;"/>
            </g>
            <g transform="matrix(1,0,0,1,-298.488,-58.126)">
                <path d="M468.192,238.343L468.386,238.187C468.323,238.241 468.258,238.293 468.192,238.343Z" style="fill:rgb(241,87,34);fill-rule:nonzero;"/>
            </g>
            <g transform="matrix(1,0,0,1,-298.488,-58.126)">
                <path d="M468.393,238.181L468.394,238.181C468.452,238.131 468.51,238.079 468.567,238.026C468.51,238.079 468.452,238.131 468.393,238.181Z" style="fill:rgb(249,159,27);fill-rule:nonzero;"/>
            </g>
            <g transform="matrix(1,0,0,1,-298.488,-58.126)">
                <path d="M468.394,238.181L468.567,238.026C468.51,238.079 468.452,238.131 468.394,238.181Z" style="fill:rgb(241,87,34);fill-rule:nonzero;"/>
            </g>
            <g transform="matrix(1,0,0,1,-298.488,-58.126)">
                <path d="M468.611,237.984C468.66,237.937 468.708,237.889 468.755,237.84L468.756,237.84C468.708,237.89 468.66,237.937 468.611,237.984Z" style="fill:rgb(249,159,27);fill-rule:nonzero;"/>
            </g>
            <g transform="matrix(1,0,0,1,-298.488,-58.126)">
                <path d="M468.611,237.984L468.74,237.856L468.755,237.84C468.708,237.889 468.66,237.937 468.611,237.984ZM456.662,237.637C456.557,237.592 456.45,237.546 456.345,237.5C456.446,237.544 456.548,237.588 456.648,237.631C456.653,237.633 456.657,237.635 456.662,237.637Z" style="fill:rgb(241,87,34);fill-rule:nonzero;"/>
            </g>
            <g transform="matrix(1,0,0,1,-298.488,-58.126)">
                <path d="M470.204,236.024C470.204,236.024 470.204,236.025 470.204,236.024Z" style="fill:rgb(78,180,170);fill-rule:nonzero;"/>
            </g>
            <g transform="matrix(1,0,0,1,-298.488,-58.126)">
                <path d="M469.618,236.808C469.621,236.806 469.622,236.803 469.624,236.801C469.622,236.803 469.62,236.806 469.618,236.808ZM469.642,236.778C469.644,236.775 469.647,236.772 469.649,236.769C469.647,236.772 469.644,236.775 469.642,236.778ZM469.667,236.746C469.669,236.744 469.67,236.741 469.673,236.739C469.671,236.741 469.668,236.744 469.667,236.746ZM469.69,236.715C469.693,236.712 469.695,236.71 469.697,236.707C469.695,236.709 469.692,236.713 469.69,236.715ZM469.714,236.684C469.716,236.682 469.719,236.678 469.721,236.676C469.719,236.678 469.716,236.682 469.714,236.684ZM469.738,236.653C469.74,236.65 469.743,236.647 469.745,236.644C469.743,236.647 469.741,236.65 469.738,236.653ZM469.763,236.62C469.765,236.618 469.766,236.617 469.767,236.615C469.766,236.617 469.764,236.619 469.763,236.62ZM469.788,236.588C469.789,236.587 469.789,236.587 469.79,236.585C469.789,236.587 469.789,236.587 469.788,236.588ZM469.811,236.557C469.812,236.556 469.813,236.555 469.814,236.554C469.813,236.555 469.812,236.557 469.811,236.557ZM469.835,236.526C469.836,236.524 469.836,236.524 469.838,236.522C469.837,236.524 469.836,236.525 469.835,236.526Z" style="fill:rgb(249,159,27);fill-rule:nonzero;"/>
            </g>
            <g transform="matrix(1,0,0,1,-298.488,-58.126)">
                <path d="M470.112,236.152C470.113,236.151 470.113,236.15 470.114,236.15C470.113,236.15 470.112,236.151 470.112,236.152Z" style="fill:rgb(245,130,31);fill-rule:nonzero;"/>
            </g>
            <g transform="matrix(1,0,0,1,-298.488,-58.126)">
                <path d="M469.601,236.831C469.608,236.822 469.615,236.812 469.622,236.803C469.748,236.641 469.871,236.478 469.992,236.314C470.039,236.25 470.086,236.186 470.132,236.122C470.169,236.071 470.205,236.02 470.241,235.97C470.289,235.903 470.336,235.835 470.383,235.767C471.422,234.262 472.262,232.659 472.905,230.989C472.909,230.977 472.914,230.964 472.919,230.952C472.44,231.038 471.932,231.08 471.399,231.08L471.359,231.08C471.349,231.08 471.339,231.08 471.33,231.079L471.261,231.079C471.249,231.079 471.238,231.078 471.227,231.078L471.197,231.078C467.734,231.011 463.24,229.239 458.534,226.464C458.531,226.462 458.527,226.46 458.524,226.458C458.519,226.455 458.513,226.452 458.508,226.449C458.108,226.213 457.704,225.968 457.302,225.718C458.447,224.744 459.53,223.667 460.538,222.488C466.13,215.943 468.256,207.605 467.094,199.709C476.845,209.595 477.533,225.776 470.204,236.024C470.204,236.025 470.204,236.024 470.204,236.024C470.174,236.067 470.144,236.108 470.114,236.15C470.113,236.15 470.113,236.151 470.112,236.152C470.022,236.276 469.93,236.4 469.838,236.522C469.836,236.524 469.836,236.524 469.835,236.526C469.828,236.536 469.821,236.545 469.814,236.554C469.813,236.555 469.812,236.556 469.811,236.557C469.804,236.567 469.797,236.576 469.79,236.585C469.789,236.587 469.789,236.587 469.788,236.588C469.781,236.597 469.774,236.606 469.767,236.615C469.766,236.617 469.765,236.618 469.763,236.62C469.758,236.628 469.751,236.637 469.745,236.644C469.743,236.647 469.74,236.65 469.738,236.653C469.732,236.661 469.727,236.668 469.721,236.676C469.719,236.678 469.716,236.682 469.714,236.684C469.708,236.692 469.703,236.699 469.697,236.707C469.695,236.71 469.693,236.712 469.69,236.715C469.684,236.723 469.679,236.731 469.673,236.739C469.67,236.741 469.669,236.744 469.667,236.746C469.661,236.754 469.655,236.761 469.649,236.769C469.647,236.772 469.644,236.775 469.642,236.778C469.636,236.786 469.63,236.793 469.624,236.801C469.622,236.803 469.621,236.806 469.618,236.808C469.612,236.816 469.607,236.823 469.601,236.831Z" style="fill:rgb(249,159,27);fill-rule:nonzero;"/>
            </g>
            <g transform="matrix(1,0,0,1,-298.488,-58.126)">
                <path d="M469.622,236.803C469.629,236.794 469.636,236.785 469.643,236.776L469.84,236.518L469.966,236.35C469.975,236.338 469.984,236.326 469.992,236.314C469.871,236.478 469.748,236.641 469.622,236.803ZM470.132,236.122C470.148,236.1 470.163,236.078 470.179,236.056C470.199,236.027 470.22,235.999 470.241,235.97C470.205,236.02 470.169,236.071 470.132,236.122ZM470.383,235.767C470.39,235.755 470.398,235.743 470.406,235.731C470.472,235.638 470.534,235.544 470.596,235.451C471.538,234.039 472.305,232.544 472.905,230.989C472.262,232.659 471.422,234.262 470.383,235.767ZM452.364,235.498C452.188,235.399 452.01,235.298 451.833,235.196C451.846,235.203 451.858,235.21 451.87,235.217C452.015,235.299 452.158,235.381 452.303,235.463C452.323,235.475 452.344,235.486 452.364,235.498ZM450.152,234.189C450.066,234.136 449.98,234.083 449.894,234.029C449.974,234.078 450.054,234.128 450.134,234.178C450.14,234.182 450.146,234.186 450.152,234.189ZM447.895,232.725C447.327,232.342 446.76,231.946 446.193,231.54C447.014,231.321 447.825,231.065 448.626,230.772C447.826,231.065 447.014,231.321 446.194,231.54L446.632,231.852C446.779,231.954 446.925,232.058 447.07,232.159C447.346,232.35 447.621,232.538 447.895,232.725ZM471.4,231.08L471.399,231.08C471.932,231.08 472.44,231.038 472.919,230.952C472.44,231.038 471.933,231.08 471.4,231.08ZM471.399,231.08L471.367,231.08L471.399,231.08ZM471.359,231.08C471.349,231.08 471.339,231.08 471.33,231.079C471.339,231.08 471.349,231.08 471.359,231.08ZM471.317,231.079L471.296,231.079L471.317,231.079ZM471.276,231.079L471.261,231.079L471.276,231.079ZM471.227,231.078L471.221,231.078L471.227,231.078ZM471.2,231.078L471.197,231.078L471.2,231.078ZM448.643,230.766C448.654,230.762 448.664,230.758 448.674,230.754C448.664,230.758 448.653,230.762 448.643,230.766ZM458.534,226.464C458.531,226.462 458.527,226.46 458.524,226.458C458.527,226.46 458.531,226.462 458.534,226.464ZM458.508,226.449C458.107,226.212 457.705,225.969 457.302,225.718C457.704,225.968 458.108,226.213 458.508,226.449Z" style="fill:rgb(241,87,34);fill-rule:nonzero;"/>
            </g>
            <g transform="matrix(1,0,0,1,-298.488,-58.126)">
                <path d="M464.193,239.516C463.893,239.516 463.585,239.503 463.269,239.477C463.258,239.476 463.247,239.475 463.235,239.474C463.204,239.472 463.172,239.469 463.14,239.466C461.213,239.288 459.012,238.643 456.662,237.637C456.657,237.635 456.653,237.633 456.648,237.631C456.548,237.588 456.446,237.544 456.345,237.5C455.054,236.933 453.721,236.26 452.364,235.498C452.344,235.486 452.323,235.475 452.303,235.463C452.158,235.381 452.015,235.299 451.87,235.217C451.858,235.21 451.846,235.203 451.833,235.196C451.275,234.874 450.715,234.539 450.152,234.189C450.146,234.186 450.14,234.182 450.134,234.178C450.054,234.128 449.974,234.078 449.894,234.029C449.23,233.612 448.562,233.177 447.895,232.725C447.621,232.538 447.346,232.35 447.07,232.159C446.925,232.058 446.779,231.954 446.632,231.852L446.194,231.54C447.014,231.321 447.826,231.065 448.626,230.772C448.631,230.77 448.637,230.768 448.643,230.766C448.653,230.762 448.664,230.758 448.674,230.754C451.769,229.618 454.696,227.935 457.302,225.718C457.705,225.969 458.107,226.212 458.508,226.449C458.513,226.452 458.519,226.455 458.524,226.458C458.527,226.46 458.531,226.462 458.534,226.464C463.24,229.239 467.734,231.011 471.197,231.078L471.227,231.078C471.238,231.078 471.249,231.079 471.261,231.079L471.33,231.079C471.339,231.08 471.349,231.08 471.359,231.08L471.4,231.08C471.933,231.08 472.44,231.038 472.919,230.952C472.914,230.964 472.909,230.977 472.905,230.989C472.305,232.544 471.538,234.039 470.596,235.451C470.534,235.544 470.472,235.638 470.406,235.731C470.398,235.743 470.39,235.755 470.383,235.767C470.336,235.835 470.289,235.903 470.241,235.97C470.22,235.999 470.199,236.027 470.179,236.056C470.163,236.078 470.148,236.1 470.132,236.122C470.086,236.186 470.039,236.25 469.992,236.314C469.984,236.326 469.975,236.338 469.966,236.35L469.84,236.518L469.643,236.776C469.636,236.785 469.629,236.794 469.622,236.803C469.615,236.812 469.608,236.822 469.601,236.831C469.393,237.097 469.178,237.359 468.959,237.616C468.893,237.693 468.825,237.768 468.756,237.84L468.755,237.84L468.74,237.856L468.611,237.984C468.596,237.998 468.582,238.012 468.567,238.026L468.394,238.181L468.393,238.181C468.391,238.183 468.388,238.185 468.386,238.187L468.192,238.343C468.184,238.349 468.176,238.355 468.168,238.361L468.04,238.455L468.039,238.455C468.012,238.474 467.986,238.492 467.959,238.511L467.958,238.511L467.782,238.625C467.527,238.782 467.258,238.917 466.975,239.031L466.84,239.084C466.639,239.159 466.433,239.223 466.22,239.278L466.039,239.322C465.849,239.366 465.653,239.402 465.453,239.431C465.441,239.432 465.429,239.434 465.417,239.435L465.416,239.436C465.274,239.456 465.13,239.472 464.983,239.484L464.879,239.492C464.655,239.508 464.427,239.516 464.193,239.516Z" style="fill:rgb(241,87,34);fill-rule:nonzero;"/>
            </g>
            <g transform="matrix(1,0,0,1,-298.488,-58.126)">
                <path d="M497.995,311.423L497.995,328.894L501.429,328.894L501.429,314.856L537.706,314.856L537.706,328.894L541.141,328.894L541.141,311.423L497.995,311.423Z" style="fill:rgb(190,59,38);fill-rule:nonzero;"/>
            </g>
            <g transform="matrix(1,0,0,1,-298.488,-58.126)">
                <path d="M583.932,335.261L583.932,398.548C583.932,402.044 581.099,404.877 577.608,404.877L563.494,404.877C566.99,404.877 569.823,402.044 569.823,398.548L569.823,335.261C569.823,331.765 566.99,328.938 563.494,328.938L577.608,328.938C581.099,328.938 583.932,331.765 583.932,335.261Z" style="fill:rgb(242,103,33);fill-rule:nonzero;"/>
            </g>
            <g transform="matrix(1,0,0,1,-298.488,-58.126)">
                <path d="M563.497,404.874L474.849,404.874C471.355,404.874 468.524,402.043 468.524,398.55L468.524,335.261C468.524,331.768 471.355,328.937 474.849,328.937L563.497,328.937C566.99,328.937 569.821,331.768 569.821,335.261L569.821,398.55C569.821,402.043 566.99,404.874 563.497,404.874Z" style="fill:rgb(254,194,13);fill-rule:nonzero;"/>
            </g>
            <g transform="matrix(1,0,0,1,-298.488,-58.126)">
                <path d="M569.82,335.26L569.82,398.55C569.82,402.043 566.986,404.876 563.494,404.876L474.845,404.876C471.353,404.876 468.527,402.043 468.527,398.55L468.527,335.26C468.527,331.768 471.353,328.934 474.845,328.934L563.494,328.934C566.986,328.934 569.82,331.768 569.82,335.26Z" style="fill:rgb(254,194,13);fill-rule:nonzero;"/>
            </g>
            <g transform="matrix(1,0,0,1,-298.488,-58.126)">
                <path d="M488.877,331.646C488.877,342.064 480.434,350.509 470.015,350.509C469.515,350.509 469.015,350.489 468.527,350.444L468.527,335.262C468.527,331.768 471.354,328.934 474.849,328.934L488.679,328.934C488.813,329.818 488.877,330.723 488.877,331.646Z" style="fill:rgb(242,103,33);fill-rule:nonzero;"/>
            </g>
            <g transform="matrix(1,0,0,1,-298.488,-58.126)">
                <path d="M488.877,403.975C488.877,404.276 488.871,404.577 488.852,404.873L474.849,404.873C471.354,404.873 468.527,402.045 468.527,398.551L468.527,385.176C469.015,385.131 469.515,385.112 470.015,385.112C480.434,385.112 488.877,393.556 488.877,403.975Z" style="fill:rgb(242,103,33);fill-rule:nonzero;"/>
            </g>
            <g transform="matrix(1,0,0,1,-298.488,-58.126)">
                <path d="M569.824,335.262L569.824,350.425C569.253,350.482 568.67,350.509 568.086,350.509C557.668,350.509 549.224,342.064 549.224,331.646C549.224,330.723 549.287,329.818 549.422,328.934L563.495,328.934C566.99,328.934 569.824,331.768 569.824,335.262Z" style="fill:rgb(242,103,33);fill-rule:nonzero;"/>
            </g>
            <g transform="matrix(1,0,0,1,-298.488,-58.126)">
                <path d="M569.824,385.195L569.824,404.873L549.249,404.873C549.229,404.577 549.224,404.276 549.224,403.975C549.224,393.556 557.668,385.112 568.086,385.112C568.67,385.112 569.253,385.138 569.824,385.195Z" style="fill:rgb(242,103,33);fill-rule:nonzero;"/>
            </g>
            <g transform="matrix(1,0,0,1,-298.488,-58.126)">
                <path d="M577.608,328.938L563.494,328.938C566.99,328.938 569.823,331.765 569.823,335.261L569.823,350.424L569.824,350.425L583.932,350.425L583.932,335.261C583.932,331.765 581.099,328.938 577.608,328.938Z" style="fill:rgb(219,77,38);fill-rule:nonzero;"/>
            </g>
            <g transform="matrix(1,0,0,1,-298.488,-58.126)">
                <path d="M569.824,385.195L569.824,404.877L577.608,404.877C581.099,404.877 583.932,402.044 583.932,398.548L583.932,385.129C576.743,385.118 570.282,385.127 569.824,385.195Z" style="fill:rgb(219,77,38);fill-rule:nonzero;"/>
            </g>
            <g transform="matrix(1,0,0,1,-298.488,-58.126)">
                <rect x="497.995" y="323.643" width="3.432" height="1.985" style="fill:rgb(129,38,24);fill-rule:nonzero;"/>
            </g>
            <g transform="matrix(1,0,0,1,-298.488,-58.126)">
                <rect x="537.71" y="323.643" width="3.432" height="1.985" style="fill:rgb(129,38,24);fill-rule:nonzero;"/>
            </g>
            <g transform="matrix(1,0,0,1,-298.488,-58.126)">
                <rect x="495.167" y="325.628" width="9.432" height="3.29" style="fill:rgb(190,59,38);fill-rule:nonzero;"/>
            </g>
            <g transform="matrix(1,0,0,1,-298.488,-58.126)">
                <rect x="534.802" y="325.628" width="9.432" height="3.29" style="fill:rgb(190,59,38);fill-rule:nonzero;"/>
            </g>
            <g transform="matrix(1,0,0,1,-298.488,-58.126)">
                <rect x="509.152" y="380.426" width="24.148" height="11.145" style="fill:white;fill-rule:nonzero;"/>
            </g>
            <g transform="matrix(1,0,0,1,-298.488,-58.126)">
                <rect x="511.552" y="382.825" width="19.348" height="6.347" style="fill:rgb(101,189,235);fill-rule:nonzero;"/>
            </g>
            <g transform="matrix(1,0,0,1,-298.488,-58.126)">
                <path d="M566.711,366.804C566.711,371.481 562.919,375.274 558.24,375.274C553.563,375.274 549.771,371.481 549.771,366.804C549.771,362.126 553.563,358.333 558.24,358.333C562.919,358.333 566.711,362.126 566.711,366.804Z" style="fill:white;fill-rule:nonzero;"/>
            </g>
            <g transform="matrix(1,0,0,1,-298.488,-58.126)">
                <path d="M563.996,366.804C563.996,369.982 561.419,372.56 558.24,372.56C555.062,372.56 552.484,369.982 552.484,366.804C552.484,363.625 555.062,361.048 558.24,361.048C561.419,361.048 563.996,363.625 563.996,366.804Z" style="fill:rgb(254,194,13);fill-rule:nonzero;"/>
            </g>
            <g transform="matrix(1,0,0,1,-298.488,-58.126)">
                <path d="M505.288,353.668L493.244,336.582L481.2,353.668L505.288,353.668Z" style="fill:white;fill-rule:nonzero;"/>
            </g>
            <g transform="matrix(1,0,0,1,-298.488,-58.126)">
                <path d="M485.714,351.327L493.244,340.645L500.774,351.327L485.714,351.327Z" style="fill:rgb(126,208,218);fill-rule:nonzero;"/>
            </g>
            <g transform="matrix(1,0,0,1,-298.488,-58.126)">
                <rect x="497.144" y="328.934" width="5.099" height="75.942" style="fill:rgb(190,59,38);fill-rule:nonzero;"/>
            </g>
            <g transform="matrix(1,0,0,1,-298.488,-58.126)">
                <path d="M502.243,328.934L502.243,380.891L499.78,382.987L497.144,380.891L497.144,328.934L502.243,328.934Z" style="fill:rgb(129,38,24);fill-rule:nonzero;"/>
            </g>
            <g transform="matrix(1,0,0,1,-298.488,-58.126)">
                <path d="M504.253,368.61L495.107,368.61L495.093,359.45L504.253,359.435L504.269,368.596L504.253,368.61ZM504.253,357.036L495.107,357.036C493.774,357.036 492.694,358.117 492.694,359.45L492.694,368.596C492.694,369.929 493.774,371.01 495.107,371.01L504.253,371.01C505.587,371.01 506.668,369.929 506.668,368.596L506.668,359.45C506.668,358.117 505.587,357.036 504.253,357.036Z" style="fill:white;fill-rule:nonzero;"/>
            </g>
            <g transform="matrix(1,0,0,1,-298.488,-58.126)">
                <rect x="536.919" y="328.934" width="5.099" height="75.942" style="fill:rgb(190,59,38);fill-rule:nonzero;"/>
            </g>
            <g transform="matrix(1,0,0,1,-298.488,-58.126)">
                <path d="M542.067,328.934L542.067,380.891L539.605,382.987L536.969,380.891L536.969,328.934L542.067,328.934Z" style="fill:rgb(129,38,24);fill-rule:nonzero;"/>
            </g>
            <g transform="matrix(1,0,0,1,-298.488,-58.126)">
                <path d="M544.078,368.61L534.933,368.61L534.918,359.45L544.078,359.435L544.094,368.596L544.078,368.61ZM544.078,357.036L534.933,357.036C533.6,357.036 532.519,358.117 532.519,359.45L532.519,368.596C532.519,369.929 533.6,371.01 534.933,371.01L544.078,371.01C545.411,371.01 546.492,369.929 546.492,368.596L546.492,359.45C546.492,358.117 545.411,357.036 544.078,357.036Z" style="fill:white;fill-rule:nonzero;"/>
            </g>
            <g transform="matrix(1,0,0,1,-298.488,-58.126)">
                <path d="M645.039,368.375C645.039,373.477 643.996,378.34 642.114,382.76C636.519,395.882 623.494,405.087 608.32,405.087C604.944,405.087 601.675,404.629 598.566,403.775C583.026,399.505 571.608,385.275 571.608,368.375C571.608,365.858 571.862,363.399 572.349,361.023C575.746,344.271 590.56,331.663 608.32,331.663C613.028,331.663 617.525,332.551 621.662,334.158C624.474,335.257 627.117,336.695 629.541,338.407C633.664,341.332 637.153,345.082 639.774,349.423C643.115,354.956 645.039,361.439 645.039,368.375Z" style="fill:rgb(239,73,90);fill-rule:nonzero;"/>
            </g>
            <g transform="matrix(1,0,0,1,-298.488,-58.126)">
                <path d="M639.774,349.423C637.476,345.617 634.512,342.267 631.037,339.527C634.24,344.976 636.088,351.318 636.088,358.098C636.088,363.2 635.045,368.062 633.163,372.481C627.567,385.605 614.543,394.81 599.369,394.81C595.993,394.81 592.724,394.352 589.615,393.498C584.825,392.182 580.429,389.916 576.636,386.921C581.417,395.071 589.249,401.215 598.566,403.775C601.675,404.629 604.944,405.087 608.32,405.087C623.494,405.087 636.519,395.882 642.114,382.759C643.996,378.34 645.039,373.477 645.039,368.375C645.039,361.439 643.115,354.956 639.774,349.423Z" style="fill:rgb(206,37,64);fill-rule:nonzero;"/>
            </g>
            <g transform="matrix(1,0,0,1,-298.488,-58.126)">
                <path d="M621.07,346.978C620.442,347.619 619.829,348.296 619.237,349C608.144,362.095 601.872,386.051 598.566,403.775C583.026,399.505 571.608,385.275 571.608,368.375C571.608,365.858 571.862,363.399 572.349,361.023C590.786,350.114 610.463,347.676 617.94,347.133C619.942,346.984 621.07,346.978 621.07,346.978Z" style="fill:rgb(254,194,13);fill-rule:nonzero;"/>
            </g>
            <g transform="matrix(1,0,0,1,-298.488,-58.126)">
                <path d="M645.039,368.375C645.039,373.477 643.996,378.34 642.114,382.76C638.584,370.573 633.685,358.459 626.997,350.283C626.257,349.367 625.489,348.493 624.692,347.683C624.692,347.683 625.961,347.696 628.202,347.865C630.859,348.07 634.891,348.507 639.774,349.423C643.115,354.956 645.039,361.439 645.039,368.375Z" style="fill:rgb(254,194,13);fill-rule:nonzero;"/>
            </g>
            <g transform="matrix(1,0,0,1,-298.488,-58.126)">
                <path d="M629.541,338.407C627.829,339.831 626.243,341.312 624.819,342.826C623.875,343.834 623.001,344.863 622.205,345.906C622.205,345.906 622.008,344.476 621.853,341.96C621.726,339.979 621.62,337.322 621.662,334.158C624.474,335.257 627.117,336.695 629.541,338.407Z" style="fill:rgb(254,194,13);fill-rule:nonzero;"/>
            </g>
            <g transform="matrix(1,0,0,1,-298.488,-58.126)">
                <path d="M598.568,403.779C598.079,403.649 597.6,403.499 597.13,403.35C596.826,403.254 596.521,403.151 596.222,403.045C596.922,403.289 597.63,403.512 598.348,403.715L598.35,403.715C598.366,403.72 598.383,403.724 598.399,403.729C598.402,403.73 598.405,403.731 598.408,403.732C598.422,403.736 598.436,403.739 598.45,403.743C598.454,403.744 598.459,403.746 598.463,403.747C598.475,403.75 598.49,403.754 598.502,403.758C598.507,403.759 598.511,403.76 598.515,403.761C598.532,403.766 598.549,403.771 598.566,403.775C598.567,403.776 598.568,403.776 598.569,403.776C598.569,403.777 598.568,403.778 598.568,403.779Z" style="fill:rgb(81,114,69);fill-rule:nonzero;"/>
            </g>
            <g transform="matrix(1,0,0,1,-298.488,-58.126)">
                <path d="M600.403,394.795C600.404,394.792 600.404,394.79 600.405,394.786L600.407,394.786C600.406,394.789 600.406,394.792 600.405,394.795L600.403,394.795Z" style="fill:rgb(238,41,36);fill-rule:nonzero;"/>
            </g>
            <g transform="matrix(1,0,0,1,-298.488,-58.126)">
                <path d="M598.569,403.776C598.568,403.776 598.567,403.776 598.566,403.775C599.099,400.921 599.709,397.902 600.403,394.795L600.405,394.795C599.707,397.909 599.098,400.922 598.569,403.776ZM598.515,403.761C598.511,403.76 598.507,403.759 598.502,403.758C598.507,403.759 598.511,403.76 598.515,403.761ZM598.463,403.747C598.459,403.746 598.454,403.744 598.45,403.743C598.455,403.745 598.458,403.745 598.463,403.747ZM598.408,403.732C598.405,403.731 598.402,403.73 598.399,403.729C598.402,403.73 598.405,403.731 598.408,403.732ZM598.35,403.715L598.348,403.715L598.35,403.715Z" style="fill:rgb(204,32,39);fill-rule:nonzero;"/>
            </g>
            <g transform="matrix(1,0,0,1,-298.488,-58.126)">
                <path d="M595.076,402.624C594.819,402.526 594.564,402.424 594.311,402.32C594.066,402.219 593.823,402.115 593.581,402.007C594.074,402.223 594.572,402.429 595.076,402.624Z" style="fill:rgb(81,114,69);fill-rule:nonzero;"/>
            </g>
            <g transform="matrix(1,0,0,1,-298.488,-58.126)">
                <path d="M589.347,399.81C589.324,399.796 589.302,399.782 589.279,399.768C589.301,399.782 589.325,399.796 589.347,399.81Z" style="fill:rgb(136,124,71);fill-rule:nonzero;"/>
            </g>
            <g transform="matrix(1,0,0,1,-298.488,-58.126)">
                <path d="M589.746,400.047C589.612,399.969 589.478,399.89 589.347,399.81C589.48,399.89 589.612,399.969 589.746,400.047Z" style="fill:rgb(81,114,69);fill-rule:nonzero;"/>
            </g>
            <g transform="matrix(1,0,0,1,-298.488,-58.126)">
                <path d="M588.179,399.073C588.04,398.982 587.902,398.892 587.767,398.803C587.644,398.717 587.522,398.632 587.401,398.547C587.658,398.725 587.917,398.901 588.179,399.073Z" style="fill:rgb(136,124,71);fill-rule:nonzero;"/>
            </g>
            <g transform="matrix(1,0,0,1,-298.488,-58.126)">
                <path d="M586.98,398.25C586.853,398.16 586.728,398.069 586.603,397.977C586.729,398.069 586.853,398.16 586.98,398.25Z" style="fill:rgb(136,124,71);fill-rule:nonzero;"/>
            </g>
            <g transform="matrix(1,0,0,1,-298.488,-58.126)">
                <path d="M598.566,403.775C598.549,403.771 598.532,403.766 598.515,403.761C598.511,403.76 598.507,403.759 598.502,403.758C598.49,403.754 598.475,403.75 598.463,403.747C598.458,403.745 598.455,403.745 598.45,403.743C598.436,403.739 598.422,403.736 598.408,403.732C598.405,403.731 598.402,403.73 598.399,403.729C598.383,403.724 598.366,403.72 598.35,403.715L598.348,403.715C597.63,403.512 596.922,403.289 596.222,403.045C596.05,402.984 595.879,402.922 595.711,402.86C595.499,402.784 595.287,402.705 595.076,402.624C594.572,402.429 594.074,402.223 593.581,402.007C593.371,401.914 593.162,401.818 592.953,401.721C592.503,401.511 592.054,401.301 591.614,401.071C591.175,400.852 590.745,400.611 590.315,400.372C590.125,400.266 589.935,400.157 589.746,400.047C589.612,399.969 589.48,399.89 589.347,399.81C589.325,399.796 589.301,399.782 589.279,399.768C589.201,399.72 589.123,399.672 589.046,399.623C588.751,399.442 588.461,399.256 588.179,399.073C587.917,398.901 587.658,398.725 587.401,398.547C587.259,398.448 587.119,398.35 586.98,398.25C586.853,398.16 586.729,398.069 586.603,397.977C586.602,397.976 586.6,397.975 586.599,397.974C586.288,397.744 585.989,397.515 585.688,397.274C585.429,397.085 585.18,396.875 584.93,396.655C584.61,396.405 584.3,396.145 584,395.865C583.411,395.357 582.852,394.816 582.302,394.267L582.142,394.097C581.812,393.777 581.502,393.447 581.202,393.107L581.143,393.048C580.892,392.768 580.643,392.488 580.394,392.198C580.243,392.028 580.094,391.849 579.953,391.669C579.754,391.43 579.564,391.189 579.374,390.949C578.375,389.681 577.466,388.332 576.646,386.933C580.443,389.921 584.83,392.179 589.616,393.498C592.724,394.347 595.99,394.807 599.368,394.807C599.717,394.807 600.056,394.807 600.405,394.786C600.404,394.79 600.404,394.792 600.403,394.795C599.709,397.902 599.099,400.921 598.566,403.775Z" style="fill:rgb(246,139,30);fill-rule:nonzero;"/>
            </g>
            <g transform="matrix(1,0,0,1,-298.488,-58.126)">
                <path d="M644.667,373.619C644.912,371.906 645.039,370.155 645.039,368.375C645.039,365.874 644.789,363.432 644.313,361.073C644.79,363.434 645.041,365.876 645.041,368.378C645.041,370.156 644.913,371.906 644.667,373.619Z" style="fill:rgb(136,124,71);fill-rule:nonzero;"/>
            </g>
            <g transform="matrix(1,0,0,1,-298.488,-58.126)">
                <path d="M635.915,365.409C635.787,365.121 635.658,364.836 635.528,364.551C635.528,364.55 635.528,364.55 635.529,364.55C635.658,364.835 635.787,365.121 635.915,365.409Z" style="fill:rgb(204,32,39);fill-rule:nonzero;"/>
            </g>
            <g transform="matrix(1,0,0,1,-298.488,-58.126)">
                <path d="M640.05,349.887C639.959,349.732 639.868,349.577 639.775,349.424C639.868,349.578 639.959,349.732 640.05,349.887Z" style="fill:rgb(136,124,71);fill-rule:nonzero;"/>
            </g>
            <g transform="matrix(1,0,0,1,-298.488,-58.126)">
                <path d="M634.843,348.607C634.839,348.606 634.834,348.605 634.829,348.605L634.829,348.604C634.834,348.605 634.839,348.606 634.843,348.607C634.844,348.607 634.843,348.606 634.843,348.607Z" style="fill:rgb(238,41,36);fill-rule:nonzero;"/>
            </g>
            <g transform="matrix(1,0,0,1,-298.488,-58.126)">
                <path d="M634.932,348.619C634.902,348.615 634.873,348.611 634.843,348.607C634.843,348.606 634.844,348.607 634.843,348.607C634.873,348.611 634.902,348.615 634.932,348.619Z" style="fill:rgb(204,32,39);fill-rule:nonzero;"/>
            </g>
            <g transform="matrix(1,0,0,1,-298.488,-58.126)">
                <path d="M642.113,382.756C640.395,376.804 638.343,370.87 635.915,365.409C635.787,365.121 635.658,364.835 635.529,364.55C635.898,362.452 636.088,360.294 636.088,358.097C636.088,354.81 635.658,351.632 634.829,348.604L634.829,348.605C634.834,348.605 634.839,348.606 634.843,348.607C634.873,348.611 634.902,348.615 634.932,348.619C636.422,348.836 638.036,349.101 639.775,349.424C639.868,349.577 639.959,349.732 640.05,349.887C642.042,353.304 643.503,357.071 644.313,361.073C644.789,363.432 645.039,365.874 645.039,368.375C645.039,370.155 644.912,371.906 644.667,373.619C644.207,376.815 643.336,379.881 642.113,382.756Z" style="fill:rgb(246,139,30);fill-rule:nonzero;"/>
            </g>
            <g transform="matrix(1,0,0,1,-298.488,-58.126)">
                <path d="M627.779,349.379C628.938,347.37 627.685,344.476 624.979,342.913C622.271,341.351 619.138,341.712 617.979,343.721C616.818,345.729 618.072,348.624 620.778,350.187C623.485,351.749 626.619,351.388 627.779,349.379Z" style="fill:rgb(206,37,64);fill-rule:nonzero;"/>
            </g>
            <g transform="matrix(1,0,0,1,-298.488,-58.126)">
                <path d="M625.127,350.208C626.286,348.199 625.032,345.305 622.326,343.742C621.176,343.077 619.955,342.781 618.834,342.791C618.497,343.05 618.194,343.347 617.979,343.721C616.818,345.729 618.072,348.624 620.778,350.187C621.929,350.852 623.15,351.147 624.271,351.138C624.608,350.879 624.911,350.582 625.127,350.208Z" style="fill:rgb(206,37,64);fill-rule:nonzero;"/>
            </g>
            <g transform="matrix(1,0,0,1,-298.488,-58.126)">
                <path d="M593.763,368.495L573.784,368.495C572.177,368.495 570.874,369.799 570.874,371.406L570.874,402.337C570.874,403.944 572.177,405.247 573.784,405.247L593.763,405.247C595.37,405.247 596.674,403.944 596.674,402.337L596.674,371.406C596.674,369.799 595.37,368.495 593.763,368.495Z" style="fill:white;fill-rule:nonzero;"/>
            </g>
            <g transform="matrix(1,0,0,1,-298.488,-58.126)">
                <path d="M590.355,368.495L570.377,368.495C568.77,368.495 567.467,369.799 567.467,371.406L567.467,402.337C567.467,403.944 568.77,405.247 570.377,405.247L590.355,405.247C591.963,405.247 593.266,403.944 593.266,402.337L593.266,371.406C593.266,369.799 591.963,368.495 590.355,368.495Z" style="fill:rgb(96,35,3);fill-rule:nonzero;"/>
            </g>
            <g transform="matrix(1,0,0,1,-298.488,-58.126)">
                <path d="M583.344,394.811C584.183,394.032 584.87,392.963 585.332,391.707L586.71,391.707C585.933,393.054 584.757,394.143 583.344,394.811ZM573.472,391.707L574.85,391.707C575.312,392.963 575.999,394.032 576.837,394.811C575.425,394.143 574.249,393.054 573.472,391.707ZM577.146,380.854C576.288,381.548 575.566,382.532 575.053,383.713L573.708,383.713C574.54,382.449 575.735,381.446 577.146,380.854ZM586.474,383.713L585.129,383.713C584.615,382.532 583.894,381.548 583.036,380.854C584.446,381.446 585.642,382.449 586.474,383.713ZM585.978,388.19L587.722,388.19C587.683,389.237 587.433,390.23 587.012,391.129L585.526,391.129C585.8,390.22 585.957,389.229 585.978,388.19ZM582.432,391.129C582.548,390.185 582.61,389.183 582.619,388.19L585.399,388.19C585.378,389.236 585.21,390.229 584.925,391.129L582.432,391.129ZM581.192,395.438C581.728,394.644 582.118,393.283 582.354,391.707L584.72,391.707C583.981,393.588 582.705,394.978 581.192,395.438ZM577.828,391.707C578.064,393.283 578.454,394.644 578.989,395.438C577.477,394.978 576.2,393.588 575.462,391.707L577.828,391.707ZM574.782,388.19L577.563,388.19C577.571,389.183 577.634,390.185 577.75,391.129L575.258,391.129C574.972,390.229 574.804,389.236 574.782,388.19ZM574.207,387.612L572.46,387.612C572.505,386.415 572.825,385.287 573.361,384.291L574.825,384.291C574.462,385.298 574.243,386.423 574.207,387.612ZM577.817,384.291C577.664,385.34 577.578,386.48 577.563,387.612L574.785,387.612C574.823,386.413 575.055,385.285 575.436,384.291L577.817,384.291ZM577.911,383.713L575.681,383.713C576.438,382.092 577.617,380.911 578.989,380.493C578.514,381.2 578.152,382.355 577.911,383.713ZM582.271,383.713C582.03,382.355 581.669,381.2 581.192,380.493C582.564,380.911 583.743,382.092 584.501,383.713L582.271,383.713ZM580.091,380.327C580.434,380.327 580.957,380.882 581.397,382.438C581.508,382.83 581.604,383.258 581.688,383.713L578.495,383.713C578.896,381.555 579.562,380.327 580.091,380.327ZM578.142,387.612C578.157,386.363 578.252,385.25 578.398,384.291L581.785,384.291C581.938,385.306 582.025,386.436 582.04,387.612L578.142,387.612ZM578.327,391.129C578.213,390.213 578.149,389.22 578.141,388.19L582.041,388.19C582.032,389.273 581.965,390.258 581.855,391.129L578.327,391.129ZM580.315,395.534L580.091,395.54L579.868,395.534C579.544,395.344 579.138,394.741 578.785,393.492C578.633,392.956 578.507,392.355 578.407,391.707L581.773,391.707C581.437,393.865 580.841,395.223 580.315,395.534ZM585.397,387.612L582.618,387.612C582.604,386.48 582.518,385.34 582.364,384.291L584.746,384.291C585.127,385.285 585.358,386.413 585.397,387.612ZM587.722,387.612L585.975,387.612C585.938,386.423 585.72,385.298 585.357,384.291L586.82,384.291C587.356,385.287 587.677,386.415 587.722,387.612ZM572.46,388.19L574.204,388.19C574.225,389.229 574.382,390.22 574.655,391.129L573.17,391.129C572.749,390.23 572.499,389.237 572.46,388.19ZM588.308,387.901C588.308,383.371 584.622,379.686 580.091,379.686C575.561,379.686 571.874,383.371 571.874,387.901C571.874,392.076 575.005,395.531 579.041,396.049C579.382,396.135 579.732,396.182 580.091,396.182C580.449,396.182 580.8,396.135 581.142,396.049C585.178,395.531 588.308,392.076 588.308,387.901Z" style="fill:white;fill-rule:nonzero;"/>
            </g>
        </g>
    </g>
</svg>
