<?xml version="1.0" encoding="UTF-8" standalone="no"?>
<!DOCTYPE svg PUBLIC "-//W3C//DTD SVG 1.1//EN" "http://www.w3.org/Graphics/SVG/1.1/DTD/svg11.dtd">
<svg width="100%" height="100%" viewBox="0 0 1240 1240" version="1.1" xmlns="http://www.w3.org/2000/svg" xmlns:xlink="http://www.w3.org/1999/xlink" xml:space="preserve" xmlns:serif="http://www.serif.com/" style="fill-rule:evenodd;clip-rule:evenodd;stroke-linejoin:round;stroke-miterlimit:2;">
    <g transform="matrix(10.3162,0,0,10.3162,-9610.95,-1260.8)">
        <g transform="matrix(0.918312,0,0,0.927978,784.108,129.472)">
            <circle cx="199.687" cy="57.194" r="38.807" style="fill:rgb(45,64,78);"/>
        </g>
        <g transform="matrix(0.918312,0,0,0.928017,784.108,129.468)">
            <clipPath id="_clip1">
                <path d="M205.897,91.149C204.555,90.362 204.549,89.148 204.663,87.635C204.82,85.549 205.392,84.44 207.06,82.525C208.799,80.531 209.499,80.48 210.956,78.779C213.134,76.237 214.636,73.85 215.563,71.595L197.432,57.904C196.749,56.469 195.638,54.73 194.569,54.321C193.759,54.012 191.331,53.735 190.668,53.458C189.148,52.826 187.783,50.409 191.528,48.426C192.817,47.743 195.638,47.971 196.108,48.76C196.896,50.083 199.498,52.218 197.97,48.26C197.407,46.803 197.799,44.487 200.486,42.036C202.242,40.434 203.934,38.55 205.09,37.663C209.516,34.264 207.729,32.649 202.792,30.174C196.136,26.837 198.649,32.034 198.077,33.292C197.431,34.712 193.278,33.988 190.976,32.157C189.253,30.787 189.952,29.006 192.263,27.127C194.832,25.037 194.88,22.95 190.122,24.186C182.4,26.192 180.283,25.221 186.351,22.319C189.65,20.74 192.735,20.562 195.749,21.568C198.228,22.395 199.756,24.037 201.198,26.127C202.313,27.744 203.467,27.888 204.504,26.805C205.482,25.783 205.353,24.807 204.085,24.025C200.047,21.535 197.545,19.675 199.725,18.321C202.951,17.341 206.368,17.733 209.996,19.632C208.719,20.427 208.654,22.363 209.337,25.011C210.405,29.153 212.178,30.414 215.001,27.385C216.749,25.51 218.639,24.968 222.351,25.522C207.928,10.347 182.6,15.53 170.533,31.406C172.832,33.943 173.795,36.383 175.271,41.358C176.249,44.652 178.309,46.958 181.743,48.598C183.171,49.281 184.137,50.698 185.543,52.831C186.801,54.739 188.582,55.355 191.108,54.969C192.915,54.692 193.784,55.38 194.747,56.888C196.336,59.375 197.966,60.115 197.432,57.904L199.705,59.67C197.843,63.894 198.382,67.854 201.565,69.932C203.189,70.992 203.961,72.483 203.705,74.638C203.273,78.279 202.641,81.821 201.827,85.273C201.682,86.056 201.45,86.819 201.853,88.741C202.309,90.916 204.685,93.349 205.897,91.149Z"/>
            </clipPath>
            <g clip-path="url(#_clip1)">
                <circle cx="199.687" cy="57.194" r="38.807" style="fill:rgb(38,166,154);"/>
            </g>
        </g>
        <g id="Marker" transform="matrix(1,0,0,1,3,0)">
            <g transform="matrix(0.995697,0,0,1.01184,45.0732,-143.31)">
                <circle cx="972.196" cy="322.023" r="35.629" style="fill:rgb(172,62,60);"/>
            </g>
            <g transform="matrix(7.52803e-17,-1.22942,1.63056,9.98429e-17,505.314,1429.75)">
                <path d="M1014.48,279.54L1036.48,297.033L992.471,297.033L1014.48,279.54Z" style="fill:rgb(172,62,60);"/>
            </g>
            <g transform="matrix(0.888552,0,0,0.888552,105.3,-71.4165)">
                <path d="M1022.39,257.821C1037.73,257.821 1050.19,270.277 1050.19,285.618C1050.19,300.96 1037.73,313.416 1022.39,313.416C1007.05,313.416 994.594,300.96 994.594,285.618C994.594,270.277 1007.05,257.821 1022.39,257.821ZM1022.39,264.77C1033.9,264.77 1043.24,274.112 1043.24,285.618C1043.24,297.125 1033.9,306.467 1022.39,306.467C1010.88,306.467 1001.54,297.125 1001.54,285.618C1001.54,274.112 1010.88,264.77 1022.39,264.77Z" style="fill:rgb(224,224,224);"/>
            </g>
        </g>
    </g>
</svg>
